<?xml version="1.0" encoding="utf-8"?>
<!-- Generator: Adobe Illustrator 25.2.1, SVG Export Plug-In . SVG Version: 6.00 Build 0)  -->
<svg version="1.1" id="Layer_1" xmlns="http://www.w3.org/2000/svg" xmlns:xlink="http://www.w3.org/1999/xlink" x="0px" y="0px"
	 viewBox="0 0 252 144" style="enable-background:new 0 0 252 144;" xml:space="preserve">
<style type="text/css">
	.st0{opacity:0.7;fill:none;stroke:#58595B;stroke-miterlimit:10;}
	.st1{opacity:0.7;}
	.st2{opacity:0.5;}
	.st3{fill:#BFAAD2;}
	.st4{fill:#6753A3;}
	.st5{fill:#7060AA;}
	.st6{fill:#AF7CB6;}
	.st7{opacity:0.4;}
	.st8{fill:#869ACE;}
	.st9{opacity:0.8;}
	.st10{fill:#88658F;}
	.st11{fill:#74CBC8;}
	.st12{opacity:0.04;}
	.st13{fill:#FFFFFF;}
</style>
<rect x="307.6" y="-33.11" class="st0" width="227.38" height="136.64"/>
<g class="st1">
	<g class="st2">
		<g>
			<path class="st3" d="M114.34,158.81c5.44,0.2,10.41-1.13,15.04-4c2.12-1.32,4.1-2.85,5.78-4.68c1.01-1.27,2-2.55,2.98-3.85
				c-1.01,1.2-0.91,1.13,0.3-0.21c0.68-0.64,2.16-1.67,2.55-2.61c-3.98,2.15-4.65,2.72-2.01,1.72c1.97-0.54,2.18-0.6,0.66-0.19
				c1.52-0.11,5.84,0.9,1.05-0.34c-6.32-7.97-8.72-9.91-7.2-5.84c0.52,1.83,0.53,1.51,0.03-0.96c0.73-2.69,1.46-5.38,2.18-8.08
				c-0.19,0.34-0.38,0.69-0.56,1.03c1.91-1.91,3.83-3.83,5.74-5.74c7.41-4.74,6.64-0.84,4.05-1.16c-2.86-0.35,3.6,1.35,0.83,0.21
				c2.35,1.37,4.71,2.74,7.06,4.11c-0.18-0.18-0.35-0.36-0.53-0.54c1.37,2.35,2.74,4.71,4.11,7.06c-0.07-0.28-0.15-0.56-0.22-0.84
				c-1.37,5.19-2.74,10.38-4.11,15.57c0.23-0.22,0.45-0.43,0.68-0.65c-2.35,1.37-4.71,2.74-7.06,4.11
				c-2.62,0.18-3.04,0.33-1.27,0.43c1.26,0.13,1.1,0.07-0.47-0.19c-1.54-0.86-1.41-0.8,0.39,0.18c-2-1.61-1.23-1.03,2.3,1.74
				c4.4,2.76,10.05,3.89,15.06,5.05c5.63,1.3,10.69,1,16.37,0.96c4.27-0.03,9.53,0.83,13.54-0.74c6.1-2.4,10.54-6.48,11.46-13.3
				c0.84-6.28-2.07-12.68-7.64-15.94c-3.81-2.23-7.27-2.13-11.38-2.84c2.7,0.47-0.01-0.51-1.21-0.83c-1.42-0.38-2.85-0.76-4.29-1.06
				c-0.57-0.16-1.15-0.33-1.72-0.49c1.04,0.49,1.1,0.49,0.18-0.01c-1.09-0.6-2.14-1.29-3.23-1.89c-1.74-0.96-3.55-1.77-5.38-2.54
				c-2.07-0.81-2.56-1.03-1.48-0.67c0.57,0.13,1.04,0.45,1.4,0.96c-1.14-0.07-3.47-2.77-4.35-3.4c-2.03-1.46-3.61-2.09-6.13-3.09
				c-3.17-1.26-6.34-1.97-9.78-2.18c-4.5-0.28-8.79,0.64-12.41,3.43c-1.82,1.41-3.52,3.21-4.69,5.22c-0.53,0.9-2.97,7.77-0.95,3.03
				c-3.27,7.68-2.55,17.51,5.74,21.89c6.87,3.63,18.38,2.48,21.89-5.74c0.97-2.28,1.86-4.49,2.56-6.85
				c-1.37,2.35-2.74,4.71-4.11,7.06c0.19-0.24,0.38-0.49,0.57-0.73c-2.35,1.37-4.71,2.74-7.06,4.11c-1.11,0.46-2.25,0.6-3.41,0.44
				c1.94,0.62,2.1,0.69,0.49,0.22c-3.97-2.26,5.42,3.96,3.36,2.62c3.58,2.34,6.55,3.36,10.17,5.37c7.96,4.43,17.19,6.32,26.12,7.2
				c-2.69-0.73-5.38-1.46-8.08-2.18c0.34,0.2,0.68,0.4,1.02,0.6c1.27-9.75,2.55-19.5,3.82-29.24c0.78-0.3,3.23-0.1,1.11-0.4
				c-1.02-0.14-2.25,0-3.28,0c-2.44,0-4.87-0.01-7.31,0.11c-1.39,0.07-2.96,0.37-4.35,0.14c1.79,0.31-0.07-0.37-0.75-0.57
				c-1.11-0.34-2.3-0.46-3.43-0.73c-0.57-0.16-1.14-0.32-1.71-0.48c-2-0.75-2-0.58,0,0.53c2.03,1.39,1.99,1.3-0.13-0.27
				c-0.72-0.58-1.45-1.14-2.2-1.67c-0.88-0.58-1.77-1.05-2.73-1.5c-3.87-1.8-7.34-2.73-11.57-3.14c-6.56-0.64-12.41,0.65-17.34,5.34
				c-4.12,3.93-5.57,10.15-4.11,15.57c3.19,11.91,16.17,15.72,26.99,12.47c14.98-4.51,16.11-22.64,7.68-33.56
				c-7.21-9.34-20.39-10.1-30.93-6.53c-5.36,1.82-9.41,4.6-13.25,8.65c-0.82,0.86-6.69,6.41-3.75,4.66
				c1.55-1.12,1.57-1.23,0.07-0.33c4.37-0.69,5.11-1.01,2.21-0.97c-8.37-0.3-16.38,7.58-16,16
				C98.74,151.74,105.37,158.49,114.34,158.81L114.34,158.81z"/>
		</g>
	</g>
	<g class="st2">
		<g>
			<path class="st4" d="M12.51-4.36c0.12-0.22,0.24-0.43,0.36-0.65c-3.19,2.45-6.37,4.9-9.56,7.35c1.67-0.56,1.16-0.56-1.53,0
				c6.21-0.63,5.67-0.84-1.65-0.62c-2.35-1.37-4.71-2.74-7.06-4.11c0.15,0.18,0.3,0.37,0.45,0.55c-1.56-3.77-3.12-7.54-4.69-11.31
				c0.51-2.23,0.52-2.32,0.01-0.28c-0.12,0.48-0.24,0.95-0.36,1.43c-0.39,1.46-0.88,2.9-1.25,4.36c-0.95,3.73-1.76,8.03-1.82,11.86
				c-0.2,13.23,14.88,21.61,26.06,14.7c5.48-3.38,8.97-9.21,12.54-14.4c1.82-2.65,3.61-5.32,5.42-7.97c0.47-0.7,0.94-1.39,1.43-2.07
				c-0.64,0.81-0.6,0.8,0.11-0.02c0.38-0.43,0.78-0.86,1.17-1.28c1.26-1.25,1.07-1.1-0.57,0.46c-2.69,0.73-5.38,1.46-8.08,2.18
				c0.3,0.01,0.6,0.02,0.89,0.03c-3.77-1.56-7.54-3.12-11.31-4.69c-1.14-2.71-2.28-5.43-3.42-8.14c0.73-2.69,1.46-5.38,2.18-8.08
				c2.43-4.16-1.32,0.31,1.12-1.58c-2.01,1.56-4.03,3.1-6.04,4.66c-2.26,1.75-4.5,3.52-6.68,5.37C-4.94-12.17-9.5-7.17-13.35-1.54
				c-3.73,5.47-6.26,11.95-7.51,18.44c-1.1,5.73-1.63,11.29,1.23,16.66c3.16,5.92,9.63,9.18,16.18,9.17
				C6.02,42.71,13.6,36.3,20.1,30.13c5.21-4.93,9.95-10.32,14.54-15.82C39.24,8.8,43.68,3.18,48.33-2.28
				c2.11-2.47,4.17-5.01,6.37-7.39c0.55-0.59,3.66-3.58,3.04-3.07c-0.57,0.43-0.49,0.38,0.26-0.16c2.42-1.51,0.91-1.25-4.54,0.77
				c-3.77-1.56-7.54-3.12-11.31-4.69c0.2,0.19,0.39,0.38,0.59,0.56c-1.37-2.35-2.74-4.71-4.11-7.06c1.67-7.18,1.69-9.17,0.08-5.98
				c1.01-1.05,0.86-0.85-0.45,0.6c-1.27,1.42-2.63,2.76-3.96,4.12c-3.11,3.19-6.29,6.3-9.54,9.35c-6.43,6.05-13,11.95-19.63,17.78
				C-6.72,12.98-36.7,32.35-22.63,50.56c7.73,10.01,22.08,7.62,31.53,1.7c7.44-4.66,13.69-11.09,19.26-17.8
				c5.29-6.37,10.28-12.96,15.99-18.98c2.9-3.05,5.93-6.02,9.19-8.69c-1.17,0.81-0.98,0.67,0.58-0.4c0.89-0.58,1.81-1.09,2.77-1.54
				c-1.28,0.6-1.01,0.58,0.81-0.05c-1.27,0.2-2.54,0.11-3.8-0.28c-3.19-2.45-6.37-4.9-9.56-7.35c0.14,0.2,0.27,0.41,0.41,0.61
				c-0.54-4.11-1.08-8.22-1.61-12.33c-0.07,0.24-0.14,0.49-0.22,0.73c1.37-2.35,2.74-4.71,4.11-7.06c-2.12,2.56,2.39-1.49,0.36,0.05
				c-1.11,0.84-2.21,1.67-3.39,2.41c-0.27,0.17-3.29,1.91-1.57,1.14c-1.52,0.69-3.24,0.95-4.87,1.19
				c6.56,3.73,13.12,7.45,19.68,11.18c-0.14-0.49-0.28-0.98-0.42-1.48c-0.54,4.11-1.08,8.22-1.61,12.33
				c0.86-1.82,0.57-2.32,2.63-4.29c0.76-0.73,1.75-1.48,2.63-2.06c0.44-0.34,0.88-0.69,1.32-1.03c-0.67,0.81-0.56,0.9,0.32,0.28
				c0.34-0.15,2.55-1.29,1.99-1.07c-1.05,0.41,2.62-1.35,1.01-0.48c-0.78-0.05-0.74-0.06,0.11-0.04c0.94,0.02,0.89,0-0.14-0.06
				c-0.21-0.16-5.97-3.41-3.73-1.63c-1.37-2.35-2.74-4.71-4.11-7.06c0.08,0.25,0.15,0.51,0.23,0.76c0-2.84,0-5.67,0-8.51
				c-0.83,2.36-0.09,1.38,2.25-2.93c-0.69,0.94-1.43,1.85-2.22,2.71c-0.88,0.97-3.22,3.2-3.56,3.48c-2.06,1.68-6.23,3.81-9.35,5.35
				c5.38,0,10.77,0,16.15,0c-0.27-0.14-0.55-0.28-0.82-0.42c1.91,7.3,3.83,14.59,5.74,21.89c-1.65,2.33,0.97-0.84,1.49-1.28
				c-2.17,1.82,1.86-0.93,2.46-1.24c1.37-0.72-1.55,0.38,1.12-0.44c0.57-0.23,1.15-0.44,1.74-0.63c2.9-0.7,1.61-0.78-3.85-0.25
				c-2.35-1.37-4.71-2.74-7.06-4.11c-0.4-0.57-0.8-1.13-1.2-1.7c-0.73-2.69-1.46-5.38-2.18-8.08c-0.1-0.9,2.2-5.28,0.48-2.8
				c1.37-1.96,4.02-3.38,0.63-1.33c-0.66,0.41-1.34,0.79-2.04,1.14c1.22-0.42,1.29-0.44,0.23-0.06c-6.66,3.17-4.61,0.3-0.14,1.16
				c3.73,3.73,7.45,7.45,11.18,11.18c-0.28-0.85-0.55-1.69-0.83-2.54c0,2.84,0,5.67,0,8.51c-0.97,2.38-5.21,5.33,0.91,0.47
				c2.46-1.95-1.16,0.39,1.83-1.33c1.39-0.79,2.76-1.59,4.16-2.37c1.74-0.8,1.92-0.92,0.55-0.36c0.74-0.3,1.48-0.58,2.23-0.84
				c1.81-0.65,3.64-1.25,5.49-1.78c1.56-0.45,5.59-0.38,1.02-0.7c3.61,0.25,9.41-1.11,12.26-3.26c5.29-3.98,8.57-8.99,7.64-15.94
				c-0.76-5.67-5.31-12.35-11.46-13.3c-11.8-1.82-23.32,0.7-34.28,5.17c-9.62,3.92-19.46,7.91-27.8,14.22
				c-5.01,3.79-10,8.55-11.74,14.85c-2.68,9.72,3.7,19.22,13.2,21.43c5.64,1.31,11.7,0.83,17.45,0.97
				c5.52,0.13,11.05,0.02,16.57,0.25c-2.69-9.94-5.38-19.88-8.08-29.82c-0.32,0.18-0.65,0.37-0.97,0.55
				c2.69-0.73,5.38-1.46,8.08-2.18c-1.74,0.17-4.09-0.02-5.73,0.49c-1.27-0.06-1.22,0.05,0.15,0.32C58.09-5,57.22-5.24,56.36-5.5
				c2.35,1.37,4.71,2.74,7.06,4.11c0.43,0.56,0.86,1.13,1.29,1.69c-0.83,6.46-1.67,12.93-2.5,19.39c-1.61,1.59,1.43-1.01,1.89-1.28
				c7.14-4.35,10.48-14.54,5.74-21.89c-4.63-7.17-14.24-10.4-21.89-5.74c-2.98,1.81-5.88,3.84-8.36,6.29
				c-5.35,5.26-5.65,12.99-2.5,19.39C43,28.47,63.08,29.59,73.59,23.67c14.31-8.06,7.3-29.18-8.08-29.82
				c-4.93-0.2-9.87-0.08-14.81-0.2c-2.34-0.06-4.68-0.14-7.02-0.16c-1.18-0.04-2.35-0.03-3.53,0.03c-2.95-0.25-2.39,0.12,1.69,1.13
				c2.64,4.61,5.28,9.21,7.92,13.82c-0.01-0.34-0.03-0.67-0.04-1.01c-0.73,2.69-1.46,5.38-2.18,8.08c0.83-1.44,0.69-1.42-0.41,0.08
				c1.39-1.26,1.49-1.45,0.3-0.57c1.65-1.42,3.73-2.54,5.6-3.62c3.69-2.14,7.56-3.9,11.46-5.61c2.73-1.2,6-2.59,10.21-3.86
				c2.26-0.68,4.53-1.18,6.85-1.62c1.97-0.31,2.31-0.37,1.03-0.17c2.02,0.11,2.36-0.01,1.02-0.33c-1.27-9.75-2.55-19.5-3.82-29.24
				c0.82-0.62,4.99-1.28,4.3-1.15c-0.94,0.17-2.12,0.27-2.98,0.38c-2.92,0.39-5.73,1.11-8.54,1.98c-5.64,1.75-11.3,3.94-16.43,6.86
				c-2.8,1.6-5.41,3.5-7.9,5.55c-0.81,0.66-1.7,1.48-0.35,0.37c-1.61,1.32-3.3,2.43-4.7,3.98c-5.75,6.39-8.46,13.94-5.72,22.35
				c1.64,5.05,5.64,10.11,11.18,11.18c6.88,1.33,12.24,0.73,18.69-1.84c-1.27,0.62-1.06,0.55,0.64-0.21
				c1.78-0.68,3.52-1.44,5.23-2.29c1.39-0.72,2.71-1.53,4.01-2.42C86.12,9.24,93.22-2.1,88.6-13.06
				c-4.82-11.43-16.96-13.56-27.57-9.54c-9.76,3.7-17.1,8.7-23.2,17.29C33,1.48,36.38,12.88,43.56,16.58
				c7.25,3.73,13.51,2.38,20.38-1.23c5.11-2.69,9.99-6.33,14.15-10.33c4.13-3.96,8.09-8.68,9.65-14.23
				c2.02-7.18,0.21-14.59-5.73-19.31c-10.99-8.72-23.75-6.95-35.5-0.68c-11.39,6.08-24.36,18.7-20.32,32.79
				c2.6,9.04,11.03,12.46,19.68,11.18C58.11,12.95,78.61,0.33,73.8-14.55c-6.15-19.02-28.51-12.61-40.22-3.55
				C24.04-10.74,16.33-1.58,8.83,7.77c-3.63,4.52-7.3,9.03-11.5,13.03c-0.82,0.78-1.66,1.53-2.5,2.28
				c-3.68,3.27,0.97-0.46-1.38,1.08c-0.69,0.48-1.4,0.91-2.13,1.31c0.27-0.08,0.54-0.16,0.81-0.24c-0.43,0.14-0.86,0.28-1.29,0.41
				c2.47-0.46,4.86,0.01,7.17,1.4c1.91,1.91,3.83,3.83,5.74,5.74c-0.14-0.25-0.28-0.49-0.42-0.74c0.54,4.11,1.08,8.22,1.61,12.33
				c-2.64,4.23-2.97,5.12-1,2.65c0.74-0.84,1.51-1.66,2.28-2.47c1.16-1.21,2.36-2.39,3.58-3.55c2.98-2.83,6.1-5.49,9.2-8.18
				c6.82-5.93,13.61-11.88,20.3-17.96C45.53,9.19,51.67,3.44,57.54-2.59c7.4-7.6,15.18-17.17,12.09-28.6
				c-3.68-13.65-18.78-15.86-29.05-8.43c-7,5.07-12.27,11.55-17.77,18.15C17.47-15.05,12.32-8.46,6.77-2.19
				C4,0.94,1.14,3.98-1.88,6.88c-1.41,1.35-2.81,2.76-4.34,3.97c1.07-0.78,0.82-0.62-0.75,0.47c1.99-0.5,4.02-0.61,6.1-0.31
				c3.19,2.45,6.37,4.9,9.56,7.35c-0.23-0.32-0.46-0.63-0.69-0.95c0.73,2.69,1.46,5.38,2.18,8.08c-0.04-2.76-0.44,1.17-0.03-0.84
				c0.25-1.23,0.53-2.47,0.88-3.68c0.27-0.92,0.58-1.83,0.91-2.73c-1.07,2.86,0.16-0.04,0.49-0.64c0.57-1.02,1.23-1.98,1.84-2.97
				c1.53-2.48-0.69,0.67,0.49-0.64c1.42-1.58,2.84-3.14,4.38-4.6c1.72-1.64,3.53-3.2,5.36-4.71c0.92-0.76,1.85-1.5,2.79-2.24
				c0.46-0.37,3.08-2.4,0.69-0.55c5.99-4.63,12.28-8.53,13.38-16.71c1.14-8.45-3.73-18.68-12.73-20.73
				c-7.99-1.82-15.05,1.49-20.31,7.41c-4.12,4.64-7.44,9.92-10.93,15.03c-1.44,2.1-2.98,4.15-4.39,6.27C-8-5.31-6.04-8-5.92-8.16
				c-1.38,1.73-2.44,1.3,0.6-0.22c2.69-0.73,5.38-1.46,8.08-2.18c-0.2,0.01-0.39,0.03-0.59,0.04c2.69,0.73,5.38,1.46,8.08,2.18
				c-0.17-0.1-0.33-0.21-0.5-0.31c2.45,3.19,4.9,6.37,7.35,9.56c-0.15,5.39-0.04,6.44,0.35,3.13c0.15-1.07,0.37-2.13,0.65-3.17
				c0.49-1.94,1.14-3.84,1.61-5.79c1.68-7,1.77-13.92-3.56-19.55C11.08-29.82,5.24-30.1-1.5-29.24c6.56-0.83-1.83,0.18-3.7,0.73
				c-4.33,1.27-7.75,4.07-9.92,8.01c-4.04,7.33-2.03,17.79,5.74,21.89C-1.88,5.35,8.2,3.47,12.51-4.36L12.51-4.36z"/>
		</g>
	</g>
	<g class="st2">
		<g>
			<path class="st5" d="M80.57,33.1c3.74-3.01,7.11-6.36,10.18-10.06c2.08-2.52,4.04-5.14,6.03-7.72c0.69-0.9,5.87-7.01,2.3-2.95
				c-9.1-3.77-18.21-7.54-27.31-11.31c0.2,1.61,0.13,3.22,0.25,4.84c0.13,1.79-0.47,6.32,0.81,1.7c1.37-2.35,2.74-4.71,4.11-7.06
				c-0.13,0.1-0.25,0.2-0.38,0.3c9.1,3.77,18.21,7.54,27.31,11.31c0.01-0.35,0.01-0.7,0.02-1.05c-0.73,2.69-1.46,5.38-2.18,8.08
				c-3.35,1.8-6.71,3.59-10.06,5.39c-4.61-2.64-9.21-5.28-13.82-7.92c0.09,0.13,0.17,0.27,0.26,0.4c0-5.38,0-10.77,0-16.15
				c-0.08,0.14-0.17,0.28-0.25,0.42c1.91-1.91,3.83-3.83,5.74-5.74c1.41-1,2.93-0.85,0.32-0.22c-1.42,0.34-2.82,0.7-4.25,0.99
				c-1.15,0.23-2.34,0.51-3.5,0.65c1.74-0.2-1.11-0.03-1.19-0.02c-8,0.95-14.57,5.37-15.71,13.87c-1.08,8.02,3.8,15.09,11.46,17.56
				c-1.22-0.47-2.31-1.15-3.26-2.06c-1.37-2.35-2.74-4.71-4.11-7.06c0.08,0.2,0.16,0.4,0.24,0.6c0.54-4.11,1.08-8.22,1.61-12.33
				c-0.19,0.29-0.38,0.58-0.58,0.87c1.91-1.91,3.83-3.83,5.74-5.74c3.12-1.54-2.53,0.31-3.45,0.45c1.93-0.26,2.08-0.31,0.44-0.14
				c-1.66,0.21-3.32,0.43-4.97,0.68c-5.32,0.78-9.84,6.31-11.18,11.18c-1.61,5.83,0.32,11.14,4.11,15.57
				c0.16,0.19,0.32,0.37,0.48,0.56c-1.37-2.35-2.74-4.71-4.11-7.06c0.05,0.21,0.1,0.43,0.14,0.64c2.45-6.02,4.9-12.05,7.35-18.07
				c1.33-0.89,4.42-0.92,0.8-0.96C52,5.41,45.29,11.67,44.26,19.38c-0.98,7.3,3.62,16.07,11.46,17.56c0.19,0.04,0.38,0.07,0.58,0.11
				c-2.35-1.37-4.71-2.74-7.06-4.11c0.14,0.11,0.28,0.22,0.42,0.34c-1.37-5.19-2.74-10.38-4.11-15.57
				c-0.04,0.14-0.08,0.27-0.13,0.41c3.73-3.73,7.45-7.45,11.18-11.18c0.22-0.06,3.92-0.15,2.05-0.35c-1.29-0.14-2.73,0.04-4.04,0
				c-2.76-0.09-5.44-0.3-8.17,0.46c-10.09,2.78-15.8,15.64-10.34,24.79c4.24,7.11,11.44,8.76,19.15,9.15
				c2.38,0.12,4.76,0.12,7.14,0.17c1.27,0.03,2.55,0.09,3.82,0.07c3.45-0.06,2.12,1.52-3.09-1.43c-1.91-7.3-3.83-14.59-5.74-21.89
				c-0.07,0.16-0.13,0.31-0.2,0.47c3.19-2.45,6.37-4.9,9.56-7.35c-0.69,0.28-1.4,0.4-2.1,0.64c1.82-0.64,1.25-0.09-0.45-0.01
				c-3.98,0.19-5.13-1.17,1.95,3.38c10.31,6.62,3.53,0.76,0.95-1.24c-3.06-2.37-6.63-3.52-10.51-3.48c-0.22,0-6.78,0.7-3.82,0.47
				c2.65-0.2-1.95,0.16-2.02,0.17c-7.44,0.9-13.46,3.43-17.54,10.1c-0.4,0.65-1.09,2.18-0.21,0.74c-1.42,1.31-1.65,1.56-0.7,0.77
				c0.72-0.54,0.7-0.56-0.07-0.06c-2.12,1.24,2.53-0.76,0.37-0.09c-0.97,0.3-3.92,0.88,0.02,0.48c4.61,8.03,9.21,16.05,13.82,24.08
				c0.25-0.33,0.49-0.65,0.74-0.98c-1.91,1.91-3.83,3.83-5.74,5.74c0.95-0.72,1.92-1.33,2.98-1.89c0.27-0.14,2.72-1.36,1.75-0.91
				c-1.19,0.55,2.41-0.95,2.78-1.08c1.32-0.49,2.66-0.96,4-1.42c4.7-1.63,9.59-2.85,14.21-4.67c-4.11-9.75-8.22-19.5-12.33-29.24
				c-7.67,4.91-14.97,11.03-23.08,15.15c7.3,7.3,14.59,14.59,21.89,21.89c0.08-0.18,0.17-0.37,0.25-0.55
				c-1.91,1.91-3.83,3.83-5.74,5.74c1.11-0.65,0.98-0.65-0.38,0c-2.4,1.02-1.5,0.64,2.7-1.14c-0.89,0.35,3.17-1.16,3.21-1.17
				c3.11-1.15,6.22-2.29,9.3-3.54c7.45-3.04,14.34-6.17,20.31-11.74c2.43-2.27-1.68,0.61,1.33-1.19c1.24-0.74,2.51-1.45,3.77-2.16
				c3.63-2.05,6.97-4.32,10.26-6.9c6.19-4.87,10.59-9.58,12.74-17.34c-1.37,2.35-2.74,4.71-4.11,7.06c0.18-0.23,0.37-0.46,0.55-0.7
				c-2.35,1.37-4.71,2.74-7.06,4.11c-0.74,0.04-1.47,0.07-2.21,0.11c-2.69-0.73-5.38-1.46-8.08-2.18c0.26,0.14,0.52,0.29,0.78,0.43
				c-2.64-4.61-5.28-9.21-7.92-13.82C83.3,4.72,83.29,4.86,83.29,5c0.73-2.69,1.46-5.38,2.18-8.08c-1.05,1.99-2.08,4.03-3.25,5.94
				c-0.32,0.5-0.64,1.01-0.97,1.51c0.12-0.24,0.24-0.49,0.36-0.73c1.22-0.61,1.79-1.93,3.48-1.79c3.77,1.56,7.54,3.12,11.31,4.69
				c-0.22-0.18-0.44-0.35-0.66-0.53c1.37,2.35,2.74,4.71,4.11,7.06c0.17,2.66,0.24,3.2,0.22,1.62c-0.19-2.02-0.44-4.04-0.75-6.04
				c-0.47-3.02-1.09-5.85-2.63-8.57c-3.33-5.87-9.41-9.05-15.95-9.5c-3.55-0.24-6.9,0.83-9.89,2.69c-1.57,0.83-2.87,1.94-3.91,3.32
				c-1.27,1.28-1.31,1.48-0.14,0.59c-3.78,2.95-4.31,3.34-1.6,1.19c-0.73,0.39-1.45,0.8-2.15,1.23c-1.26,0.78-2.5,1.57-3.79,2.32
				c-0.91,0.47-0.75,0.48,0.46,0.03c-0.97,0.41-1.96,0.75-2.97,1.02c-2.02,0.61-4.07,1.06-6.07,1.76
				c-4.72,1.63-9.11,3.41-12.65,7.09c-8,8.34-12.77,23.49-3.39,32.5c6.04,5.8,16.7,6.46,22.63,0c5.77-6.28,6.45-16.43,0-22.63
				c-0.17-0.17-0.35-0.34-0.52-0.5c1.37,2.35,2.74,4.71,4.11,7.06c-0.07-0.2-0.14-0.4-0.22-0.6c0,2.84,0,5.67,0,8.51
				c0.44-1.55,0.27-1.43-0.5,0.35c0.45-0.79,0.88-1.6,1.28-2.43c0.94-1.72,0.8-1.72-0.4-0.01c-5.28,2.63-6.39,3.31-3.31,2.02
				c3.74-1.05,7.64-2.13,11.23-3.59c4.07-1.64,7.65-3.57,11.32-5.9c1.13-0.72,7.79-5.7,3.94-2.74c-0.32,0.25,8.86-6.46,3.78-3.53
				c-2.69,0.73-5.38,1.46-8.08,2.18c-1.88-0.43-3.76-0.86-5.63-1.29c-1.91-1.91-3.83-3.83-5.74-5.74c-1.01-1.4-0.3-2.08-0.38-0.11
				c0.04-0.85-0.15-0.66-0.07,0.09c0.45,4.44,1.01,7.95,3.79,11.55c5.03,6.51,13.85,8.36,21.49,5.68
				c10.97-3.86,21.47-16.11,21.95-28.12c0.22-5.45-3.17-11.2-7.92-13.82c-5.99-3.29-13.01-3.46-18.98,0.03
				c-2.58,1.51-4.69,3.94-6.29,6.44c-0.82,1.49-1.44,3.05-1.85,4.69c-0.44,2.37,0.21,1.37,1.97-2.99c-0.81-0.02-3.08,2.74-3.62,3.21
				c-1.46,1.24-1.71,1.45-0.77,0.64c-0.52,0.34-1.04,0.68-1.56,1.02c-3.47,1.96-6.99,3.87-10.19,6.24c-1.99,1.48-3.66,2.88-5.46,4.5
				c-1.42,1.21-1.55,1.32-0.39,0.34c-0.65,0.45-1.32,0.86-2.02,1.23c-1.69,0.96-3.47,1.79-5.26,2.56c2.09-0.89-2.58,0.98-2.48,0.95
				c-4.84,1.86-9.69,3.61-14.47,5.63c3.88-1.64-2.6,1.03-3.29,1.4c-2.73,1.48-5.43,3.91-6.73,6.77c-2.88,6.32-3.06,14.28,2.5,19.39
				c5.47,5.02,12.8,5.85,19.39,2.5c8.12-4.12,15.41-10.24,23.08-15.15c6.75-4.32,9.71-12.49,6.55-19.98
				c-2.82-6.69-11.43-12.19-18.88-9.26c-13.87,5.46-30.34,7.3-39.84,19.92c-7.03,9.34,2.38,25.23,13.82,24.08
				c5.68-0.57,11.48-2.01,16.36-5.13c2.35-1.5,4.71-3.34,6.65-5.35c1.49-1.54,2.77-3.39,3.94-5.16c0.81-1.23,2.94-3.15,0.01-0.33
				c-2.35,1.37-4.71,2.74-7.06,4.11c3.19-1.26-3.11,0.03,1.17-0.39c0.49-0.05,0.97-0.1,1.46-0.15c6.33-0.62,5.67-0.86-1.99-0.72
				c-3.19-2.45-6.37-4.9-9.56-7.35c4.6,6.88,11.48,9.69,19.67,9.27c7.55-0.39,18.33-1.53,21.77-9.65c3.33-7.87,2.55-17.2-5.74-21.89
				c-4.8-2.71-9.95-2.88-15.3-2.98c-2.11-0.04-4.23-0.07-6.34-0.12c-1.06-0.01-2.12-0.05-3.18-0.11c-2.1-0.15-2.09-0.17,0.03-0.07
				c3.19,2.45,6.37,4.9,9.56,7.35c-0.1-0.18-0.21-0.36-0.31-0.55c0.54,4.11,1.08,8.22,1.61,12.33c0.08-0.2,0.16-0.4,0.24-0.61
				c-1.37,2.35-2.74,4.71-4.11,7.06c0.18-0.23,0.36-0.46,0.54-0.68c-3.77,1.56-7.54,3.12-11.31,4.69c2.95-0.31,6.03,0.28,9.02,0.09
				c7.98-0.5,14.22-4.39,16.7-12.35c1.53-4.92,0.11-12.23-4.11-15.57c-2.59-2.05-4.68-3.92-8.06-4.56
				c-1.42,10.48-2.84,20.95-4.25,31.43c5.14,0.06,10.95-0.47,15.35-3.41c6.18-4.13,8.99-10.79,7.35-18.07
				c-0.77-3.4-2.53-5.68-4.74-8.26c-2.35,8.91-4.71,17.83-7.06,26.74c-6.04,0.88,1.8-0.16,2.95-0.32c1.59-0.22,3.19-0.42,4.74-0.81
				c5.64-1.4,10.89-4.09,13.96-9.26C99.6,12.22,90.44,1.14,79.22-2.47c-1.42,10.48-2.84,20.95-4.25,31.43
				c10.54-1.25,24.66-1.54,30.76-11.93c2.8-4.76,3.07-11.42,0-16.15c-10.36-15.99-33.5-6.2-33.85,11.26
				c-0.13,6.37,4.13,12.21,9.84,14.62c6.35,2.68,12.31,0.85,17.48-3.31c6.43-5.18,5.49-15.12,4.58-22.41
				c-0.83-6.56-3.36-11.89-9.84-14.62c-5.58-2.35-13.26-1.49-17.48,3.31c-1.07,1.22-2.04,2.53-3.02,3.82
				c1.29-1.72,1.26-1.61-0.01,0.04c-1.99,2.57-3.48,4.61-5.3,6.81c-3.06,3.7-6.43,7.05-10.18,10.06c-6.55,5.27-5.9,17.21,0,22.63
				C64.9,39.48,73.59,38.72,80.57,33.1L80.57,33.1z"/>
		</g>
	</g>
	<g class="st2">
		<g>
			<path class="st6" d="M94.71,51.18c6.66,0.01,13.66,0.55,20.06-1.63c6.72-2.3,12.68-6.19,17.03-11.82
				c3.67-4.75,6.45-10.13,9.74-15.16c0.67-1.03,1.55-2.05,2.08-3.15c1.03-2.15-0.61,1.85-1.2,0.97c-0.01-0.02,2.81-1.49,3-1.59
				c3.76-1.96-0.51,0.26-1.68,0.15c-2.69-0.73-5.38-1.46-8.08-2.18c0.27,0.21,0.54,0.41,0.82,0.62c5.38,4.07,15.02,2.26,19.39-2.5
				c4.43-4.83,6.83-13.63,2.5-19.39c-3.58-4.77-5.97-9.21-11.77-11.66c-6.64-2.8-13.71-0.61-19.48,3.22
				c-7.77,5.17-13.62,13.06-18.25,21.05c-1.51,2.61-3.56,4.77-6.72,7.89c-0.41,0.4-2.29,1.53-0.49,0.51
				c0.6-0.34,1.56-0.16,0.06-0.07c-2.1,0.12-4.93,1.11-7.01,1.64c-9.92,2.51-17.26,10.8-22.38,19.29c-3.4,5.62-5.2,12.35-2.55,18.61
				c3.09,7.32,9.24,10.55,16.77,11.56c11.32,1.52,21.73-4.5,30.57-10.93c8.02-5.83,15.13-12.69,22.76-19
				c0.23-0.19,2.39-1.81,0.62-0.5c0.65-0.48,1.31-0.96,1.98-1.42c1.81-1.27,3.67-2.45,5.57-3.59c4.38-2.64,8.51-5.4,12.47-8.66
				c4.11-3.39,8.44-7.23,11.05-11.95c4.49-8.13,2.32-18.97-6.17-23.54c-11.09-5.97-32.57-1.65-34.69,12.76
				c-1.21,8.24,2.04,17.6,11.18,19.68c7.59,1.73,18.38-2.32,19.68-11.18c-0.99,1.59-1.98,3.19-2.97,4.78
				c-2.35,1.37-4.71,2.74-7.06,4.11c2.78-1.05-2.77-0.04,1.39-0.38c1.33-0.11,2.61-0.25,3.95-0.2c-2.69-0.73-5.38-1.46-8.08-2.18
				c0.3,0.16,0.6,0.31,0.9,0.47c-1.91-1.91-3.83-3.83-5.74-5.74c0.1,0.23,0.21,0.46,0.31,0.68c0-5.38,0-10.77,0-16.15
				c-0.86,1.9-1.38,1.75,0.11,0.28c-1.25,1.23-2.51,2.46-3.82,3.63c-2.73,2.45-2.99,2.55-6.47,4.65
				c-6.43,3.89-12.45,8.16-18.24,12.98c-4.78,3.99-11.06,9.99-14.88,12.83c-2.65,1.98-5.47,3.74-8.34,5.4
				c-0.78,0.46-1.56,0.9-2.35,1.33c1.13-0.35,1.17-0.36,0.12-0.04c-1.04,0.25-1.01,0.32,0.08,0.21c0.86,0.27,1.69,0.62,2.48,1.05
				c1.91,1.91,3.83,3.83,5.74,5.74c-0.16-0.31-0.32-0.62-0.48-0.94c0.73,2.69,1.46,5.38,2.18,8.08c-0.77,7.74-1.58,5.48,0.45,2.32
				c2.4-3.76-1.44,1.26,1.53-1.96c0.14-0.15,2.81-3.03,2.9-2.93c0.24,0.27-7.03,2.83-0.56,1.43c8.05-1.74,14.61-4.85,20.64-10.57
				c5.51-5.23,9.2-11.29,13.39-17.5c0.82-1.22,1.71-2.43,2.59-3.61c-1.6,2.16,0.84-0.94,1.28-1.4c0.31-0.32,3.17-2.6,1.71-1.67
				c-1.26,0.81,2.65-1.31,3.1-1.53c-2.69,0.73-5.38,1.46-8.08,2.18c0.36-0.03,0.73-0.07,1.09-0.1c-2.69-0.73-5.38-1.46-8.08-2.18
				c-2.96-3.29-3.88-4.05-2.77-2.29c0.32,0.59,0.7,1.15,1.15,1.66c7.3-7.3,14.59-14.59,21.89-21.89
				c-7.47-5.66-16.95-1.95-24.19,1.83c-6.53,3.42-10.59,8.79-14.53,14.83c-1.72,2.63-3.46,5.23-5.03,7.95
				c-0.7,1.21-1.3,2.48-2.08,3.65c-0.6,0.92-0.57,0.88,0.09-0.1c-0.38,0.36-0.75,0.73-1.13,1.09c3.03-0.96-2.88,1.03,0.51-0.32
				c-0.48,0.19-4.1,0.76-2.28,0.65c1.89-0.11-3.5-0.14-3.35-0.14c-1.98,0-3.95-0.02-5.93-0.02c-8.37-0.02-16.39,7.37-16,16
				C79.1,43.87,85.74,51.17,94.71,51.18L94.71,51.18z"/>
		</g>
	</g>
	<g class="st7">
		<g>
			<path class="st6" d="M203.28,5.19c-0.14-5.07-3.42,5.47-4.39,6.11c-0.22,0.14-2.34,0.91-2.32,0.77c0.03-0.22,7.12,0.05,7.9,0.07
				c5.54,0.15,11.08,0.49,16.62,0.56c4.63,0.06,9.27,0.05,13.89-0.01c1.12-0.01,2.25-0.05,3.37-0.05c3.3,0.02,1.13,0.18,0.28-0.23
				c-1.27-0.61,1.09,0.71,1.31,0.84c1.25,0.72,2.17,2.13,0.04-0.21c-1.37-2.35-2.74-4.71-4.11-7.06c-0.05-1.69-0.09-1.52-0.11,0.49
				c0.02,0.94,0.02,1.89,0,2.83c0.24-1.93,0.12-2.04-0.37-0.31c-1.45,3.47-0.1,1.97,4.05-4.52c-0.64,0.38-1.3,0.74-1.96,1.09
				c1.58-0.65,1.48-0.71-0.31-0.17c-0.51,0.05-5.43,1.1-3.56,0.82c-4.93,0.75-8.35-0.1-11.99-0.66c-5.56-0.85-11-1.36-16.61-1.38
				c-6.08-0.03-11.79,0.48-17.37,3.06c-3.91,1.81-7.36,4-10.98,6.28c-4.16,2.61-8.83,4.33-13.21,6.53c-0.96,0.48-2,0.97-2.89,1.58
				c-1.56,0.78-1.27,0.71,0.86-0.2c-2.92,0.86-1.2,0.96,5.18,0.31c2.35,1.37,4.71,2.74,7.06,4.11c1.01,1.7,2.02,3.41,3.03,5.11
				c0,2.84,0,5.67,0,8.51c0.06-0.17,0.12-0.34,0.18-0.5c-1.37,2.35-2.74,4.71-4.11,7.06c-2.95,1.28-5.9,2.56-8.85,3.83
				c0.37-0.02,0.74-0.03,1.11-0.02c0.42,0.07,0.91,0.02,1.33,0.03c1.14,0.02,2.28,0.06,3.42,0.16c-2.28-0.19,1.27,0.23,1.69,0.3
				c6.48,1.14,12.87,3.18,19.48,3.46c6.02,0.26,12.11-0.02,18.14-0.02c1.22,0,2.43-0.01,3.65,0c-0.14,0,4.43,0.09,2.61,0.05
				c-1.6-0.03-1.54-0.7-0.02,0.39c1.09,0.78,2.2,1.54,3.3,2.3c12.15,8.4,28.99,10.47,38.84-2.28c9.21-11.92,7.87-34.24-8.41-39
				c-7.23-2.11-14.03,1.54-18.07,7.35c-2.5,3.6-2.46,8.09-2.85,12.29c-0.33,3.65,0.06,0.02,0.64-0.98c0.58-1,3.99-3.08,1.68-1.95
				c-0.36,0.18-4.4,2.23-2.68,1.49c0.27,0.04,0.54,0.07,0.81,0.11c-1.14,0.07-2.28,0.12-3.42,0.14c-0.43,0-4.38-0.27-3.04-0.04
				c0.93,0.16-2.9-0.72-3.54-0.86c-7.72-1.58-14.4-4.68-22.55-2.56c-2.3,0.6-4.6,1.53-6.63,2.78c-1.03,0.71-2.03,1.46-3,2.25
				c-1.74,1.48-2.11,1.72-1.11,0.72c-2.24,1.33-3.92,2.44-6.04,4.15c0.04-0.04-3.89,3.08-2,1.73c-1.3,0.93-2.8,1.57-4.19,2.34
				c-2.35,1.3,0.33,0.22-2.52,1.11c-0.37,0.11-4.53,1.29-2.73,0.85c1.99-0.21,0.76-0.04-3.69,0.51c-1.73,0.26-2.07,0.3-1.02,0.13
				c2.53-0.19-4.75,0.09-2.06,0.11c1.74,0.01,1.29,0.57-0.08-0.58c-3.16-2.68-6.88-4.7-10.89-5.81c-8.49-2.34-18.8-1.39-26.64,2.51
				c-2.75,1.37-5.47,3.09-7.98,4.87c-5.81,4.13-7.95,8.83-8.61,15.89c-0.83,8.99,8.02,15.5,16,16c0.34,0.02,0.67,0.04,1.01,0.06
				c8.37,0.52,16.37-7.73,16-16c-0.41-9.11-7.03-15.44-16-16c-0.34-0.02-0.67-0.04-1.01-0.06c5.33,5.33,10.67,10.67,16,16
				c0.04-0.41,0.08-0.81,0.11-1.22c-0.73,2.69-1.46,5.38-2.18,8.08c0.19-0.29,0.38-0.57,0.57-0.86c-1.91,1.91-3.83,3.83-5.74,5.74
				c1.03-0.78,2.16-1.38,3.26-2.06c-0.12,0.08,4.46-2.79,2.46-1.77c1.76-0.4,2.11-0.5,1.06-0.31c-1.06,0.15-0.69,0.16,1.13,0.02
				c0.56-0.01,1.12-0.01,1.67-0.02c1.94,0.07,2.06,0.07,0.37,0c-2.34-1.42,1.62,1.38,1.85,1.55c1.18,0.83,2.31,1.67,3.58,2.37
				c4.15,2.29,8.72,3.43,13.45,3.53c1.61,0.03,3.19-0.13,4.79-0.3c-3.15,0.34,9.28-1.27,4.65-0.64c4.42-0.61,8.29-1.31,12.42-3.01
				c3.54-1.46,7.14-2.95,10.4-4.98c2.09-1.3,4.04-2.82,5.9-4.41c0.66-0.55,1.3-1.12,1.93-1.71c-0.73,0.76-0.67,0.84,0.2,0.23
				c0.98-0.61,5.19-2.77,5.32-3.83c-0.1,0.8-2.21,1.08-2.84,1.25c-1.53-0.25-1.74-0.24-0.63,0.05c0.73,0.21,1.46,0.44,2.18,0.71
				c1.51,0.49,2.98,0.99,4.53,1.34c7.8,1.79,15.21,2.57,23.15,1.5c7.39-0.99,15.77-5.23,20.84-10.8c5.89-6.47,6.52-14.75,7.16-23.07
				c-0.73,2.69-1.46,5.38-2.18,8.08c0.11-0.17,0.23-0.33,0.34-0.5c-6.02,2.45-12.05,4.9-18.07,7.35c0.29,0.09,0.59,0.17,0.88,0.26
				c-2.35-1.37-4.71-2.74-7.06-4.11c-5.25-4.89-2.78-10.66-3.55-4.61c0.24-1.88,0.93-1.26-0.11,0.02c1.35-1.67,5.63-10.3,9.44-5.99
				c0.78,0.89-2.14-0.64-2.67-0.86c1.98,0.85-0.47-0.4-0.69-0.56c-1.29-0.94-2.65-1.85-3.97-2.75c-3.15-2.13-6.59-3.81-10.3-4.71
				c-6.11-1.48-12.66-1-18.89-1c-6.49,0-11.64,0.23-16.66-0.95c-10.82-2.54-27.26-6.59-36.4,2.21c-5.93,5.71-6.78,14.82-2.52,21.76
				c4.88,7.94,14.5,10.32,22.89,7.07c9.88-3.83,18.82-9.7,28.12-14.57c-0.35,0.18,4.44-2,2.83-1.49c-1.19,0.38-2.34,0.23,0.45,0.37
				c3.1,0.15,6.22,0.05,9.33,0.18c2.1,0.09,3.05,0.35,5.88,0.76c4.11,0.6,8.27,1.24,12.44,1.26c14.14,0.05,29.57-4.41,35.3-18.43
				c2.18-5.34,2.8-10.99,2.49-16.73c-0.49-8.94-6.02-14.59-13.44-18.67c-7.7-4.23-15.98-3.84-24.44-3.84
				c-6.86,0-13.68-0.14-20.54-0.41c-7-0.27-14.58-0.98-21.37,1.08c-10.6,3.22-17,12.95-16.71,23.8c0.22,8.36,7.2,16.39,16,16
				C195.76,20.81,203.52,14.16,203.28,5.19L203.28,5.19z"/>
		</g>
	</g>
	<g class="st2">
		<g>
			<path class="st8" d="M250.1,22.76c3.04,0.01,6.18-0.27,9.2-0.03c-2.69-0.73-5.38-1.46-8.08-2.18c0.3,0.13,0.6,0.27,0.9,0.4
				c-1.91-1.91-3.83-3.83-5.74-5.74c4.48-11.87,4.74-15.91,0.81-12.11c0.5-0.53,0.33-0.47-0.49,0.18c-1.66,1.11-3.25,2.22-4.83,3.44
				c-3.86,2.99-6.62,7.31-7.76,12.07c-1.77,7.42,1.51,14.5,7.82,18.57c-0.15-0.1,3.97,2.08,5.3,2.04c2.62,0.76,2.01,0.14-1.81-1.88
				c-0.74-0.83-1.25-1.79-1.54-2.86c0-2.84,0-5.67,0-8.51c-0.07,0.31-0.14,0.63-0.21,0.94c1.37-2.35,2.74-4.71,4.11-7.06
				c0.55-0.39,1.1-0.78,1.66-1.17c-0.5,0.3-1,0.58-1.52,0.86c-0.83,0.45-0.86,0.47-0.08,0.06c0.8-0.36,0.75-0.4-0.14-0.12
				c-0.71,0.12-3.25,0.35-1.38,0.26c-1.26,0.06-2.52,0-3.78-0.01c-8.66-0.06-15.03,3.39-19.47,10.84c1.91-1.91,3.83-3.83,5.74-5.74
				c-0.7,0.53-1.37,0.92-2.15,1.32c1.54-0.81,1.11-0.41-0.28-0.15c-2.58,0.48-5.15,1.05-7.69,1.69c-0.95,0.24-1.88,0.5-2.82,0.76
				c-0.28,0.08-2.71,0.55-1.43,0.4c1.32-0.15-1.75-0.04-2.03-0.04c-0.84,0-1.7-0.11-2.54-0.08c-9.37,0.29-18.12,6.96-18.12,16.95
				c0,7.34,5.01,14.36,11.3,17.83c11.17,6.15,24.62,4.84,35.89,0.04c4.2-1.79,8.14-3.83,12.08-6.14c1.21-0.71,2.42-1.4,3.68-2.02
				c0.25-0.13,2.81-1.27,1.86-0.89c-0.99,0.39,1.89-0.5,2.09-0.62c1.41-0.29,1.09-0.35-0.96-0.19c-1.39,0.22-2.7-0.03-3.93-0.75
				c-1.91-1.91-3.83-3.83-5.74-5.74c0.15,0.27,0.29,0.54,0.44,0.82c-0.54-4.11-1.08-8.22-1.61-12.33c-0.05,0.28-0.09,0.56-0.14,0.84
				c1.37-2.35,2.74-4.71,4.11-7.06c1.17-1.35,2.8-1.3,0.42-0.49c-2.53,0.86,2.01-0.5-0.57,0.2c-0.96,0.26-3.49,0.86-1.18,0.51
				c-1.24,0.19-2.51,0.12-3.75,0.2c-6.63,0.4-11.9,3.21-17.59,6.33c-7.35,4.03-10.33,14.77-5.74,21.89
				c4.8,7.45,14.03,10.05,21.89,5.74c0.46-0.25,5.25-3.07,5.34-2.91c0.22,0.41-7.06,0.78-3.33,0.94c1.05,0.04,2.14-0.09,3.18-0.19
				c6.15-0.58,11.66-1.92,17.2-4.7c5.19-2.61,9.74-6.94,11.01-12.79c2.01-9.3-3.55-18.68-12.84-21.19
				c-11.54-3.12-22.43,2.37-32.15,8.07c-1.95,1.15-3.94,2.18-6,3.12c-2.69,1.23-1.23,0.8-4.06,1.51c-2.39,0.6,1.8,0.07-0.67,0
				c-0.28-0.01-3.34-0.13-2.02,0c1.39,0.13-1.69-0.41-1.88-0.39c-1.32-0.4-1-0.13,0.95,0.81c2.21,0.95,3.6,2.71,4.15,5.3
				c-0.54,4.11-1.08,8.22-1.61,12.33c0.16-0.23,0.32-0.47,0.48-0.7c-3.19,2.45-6.37,4.9-9.56,7.35c-4.13,1.05-0.53,0.42,0.75,0.41
				c2.55-0.03,5.08-0.38,7.59-0.76c3.41-0.52,6.7-1.65,10.08-2.38c9.26-2,15.84-5.02,21.19-13.16c-1.91,1.91-3.83,3.83-5.74,5.74
				c-0.95,0.42-6.56,1.1-3.13,1.51c1.29,0.15,2.68,0.02,3.97-0.09c3.18-0.26,6.64-0.6,9.72-1.5c5.79-1.68,13.06-5.34,16-10.92
				c4-7.57,2.19-15.54-2.83-22.04c-4.26-5.52-9.57-7.01-15.82-9.26c2.35,1.37,4.71,2.74,7.06,4.11c-0.16-0.17-0.31-0.33-0.47-0.5
				c1.37,5.19,2.74,10.38,4.11,15.57c-0.83,2.19-2.3,3.89-4.42,5.12c1.03-0.67,2.06-1.33,3.08-2.01c2.43-1.67,5.01-3.4,7.12-5.48
				c4.07-4.01,6.65-9.58,6.53-15.35c-0.14-6.88-3.82-13.4-9.89-16.66c-5.42-2.91-11.39-2.15-17.28-2.16c-8.37-0.01-16.39,7.37-16,16
				C234.49,15.44,241.13,22.74,250.1,22.76L250.1,22.76z"/>
		</g>
	</g>
	<g class="st9">
		<g>
			<path class="st8" d="M34.45,35.89c-10.27,0.13-15.38,7.27-22.11,13.7c-3.17,3.03,2.07-1.01-1.63,1.24
				c-1.34,0.82-2.62,1.86-4.03,2.56c1.98-0.99,0.42,0.24,0.04,0c-1.58,0.29-0.99,0.23,1.76-0.18c-1.84,0.04-1.15,0.18,2.09,0.4
				c2.35,1.37,4.71,2.74,7.06,4.11c-0.1-0.1-0.2-0.2-0.3-0.3c1.56,3.77,3.12,7.54,4.69,11.31c0.01-0.16,0.02-0.32,0.03-0.47
				c-5.33,5.33-10.67,10.67-16,16c-2.97,0.22-1.55-0.17,0,0.11c2.16,0.38,4.37,0.77,6.58,0.89c3.66,0.19,7.46-0.21,11.03-0.97
				c5.76-1.22,11.35-4,16.19-7.3c1.91-1.3,3.9-2.41,5.92-3.52c0.04-0.02,3.73-1.75,2.19-1.23c-1.91,0.64,2.78-0.44,0.21-0.04
				c3.49-0.55,7.16-0.28,10.6-1.24c1.64-0.46,3.44-1.24,4.92-2.03c0.95-0.5,7.02-5.2,2.69-1.98c-2.69,0.73-5.38,1.46-8.08,2.18
				c0.27-0.03,0.53-0.07,0.8-0.1c-5.14-3.92-10.29-7.83-15.43-11.75c0.04,0.22,0.07,0.45,0.11,0.67c0-2.84,0-5.67,0-8.51
				c-0.08,0.2-0.16,0.4-0.25,0.6c1.37-2.35,2.74-4.71,4.11-7.06c0.84-0.9,1.82-1.54,2.96-1.92c1.31-0.52,1.33-0.56,0.06-0.1
				c-0.69,0.21-1.38,0.43-2.05,0.71c-7.7,3.2-14.07,10.75-11.18,19.68c2.4,7.4,11.41,14.61,19.68,11.18
				c3.13-1.3,6.47-2.04,9.38-3.88c7.24-4.59,9.35-11.75,8.02-19.87c-1.01-6.18-9.07-12.53-15.43-11.75
				c-2.46,0.3-4.68,0.51-6.96,1.48c-1.72,0.72-4.81,3.55-6.05,3.98c0.38-0.13,5.02-3.38,5.44-2.57c-0.15-0.29-3.86,0.32-4.2,0.36
				c-7.15,0.76-12.8,2.83-19.05,6.31c-2.03,1.13-3.92,2.37-5.86,3.65c-1.09,0.72-2.19,1.35-3.33,1.98
				c-0.67,0.37-2.14,0.83-0.63,0.32c-0.06,0.02-4.07,0.96-2.86,0.82c1.25-0.14-2.96-0.1-2.97-0.1c1.43,0.16,1.51,0.17,0.09-0.25
				c-2.05-0.61-4.55-0.89-6.67-0.74c-9,0.65-15.49,6.82-16,16c-0.82,14.67,15.54,19.35,26.8,15.47c5.76-1.99,11.12-5.67,15.82-9.49
				c1.62-1.31,3.15-2.75,4.64-4.2c0.95-0.92,1.87-1.86,2.74-2.86c3.36-3.81,0.4,0.62-5.59,0.7c8.37-0.11,16.39-7.28,16-16
				C50.06,43.31,43.41,35.77,34.45,35.89L34.45,35.89z"/>
		</g>
	</g>
	<g class="st7">
		<g>
			<path class="st10" d="M97.68,63.25c-0.13-0.24-0.25-0.47-0.38-0.71c0.73,2.69,1.46,5.38,2.18,8.08
				c-0.06-0.73,0.15-3.53-0.41-0.25c-0.62,1.9-0.5,1.98,0.36,0.24c-0.2,0.34-0.4,0.68-0.59,1.02c-0.29,0.26-0.57,0.52-0.86,0.78
				c-1.43,0.57-1.52,0.69-0.29,0.36c1.11-0.21,1.13-0.24,0.05-0.09c0.58-0.04,1.16-0.08,1.75-0.13c5.89-0.14,11.86,0.28,17.74-0.1
				c4.69-0.3,8.48-1.43,12.78-3.2c0.86-0.35,2.35-0.74,0.67-0.24c1.26-0.37,2.58-0.61,3.83-0.99c1.21-0.22,1.03-0.21-0.52,0.02
				c0.48-0.04,0.96-0.09,1.45-0.13c-4.3-1.08,1.3,0.71-0.4-0.03c-1.53-0.67,1.15,0.65,1.6,0.86c3.49,1.64,0.74,1.59-1.84-3.09
				c1.91-7.3,3.83-14.59,5.74-21.89c1.52-0.82,2.86-1.17,0.42-0.41c-1.47,0.46-2.92,1.05-4.36,1.59c-2.42,0.9-4.84,1.82-7.32,2.56
				c-2.72,0.81-5.49,1.41-8.29,1.89c-3.14,0.54-3.22,0.5-6.04,0.87c-0.98,0.13-5.43,0.72-4.74,0.63c1.16-0.16,0.6-0.08-1.68,0.22
				c-1.2,0.13-2.38,0.31-3.56,0.54c-2.88,0.76-5.37,2.37-8.08,3.51c1.52-0.64,0.75-0.19-0.34-0.08c0.69-0.07,4.13,0.08,3.44-0.02
				c-4.79-0.68-8.92-1.18-13.4,1.48C79.5,60.75,76,69.26,78.31,77.22c2.61,8.99,10.7,12.86,19.31,13.73
				c2.96,0.3,5.76-0.06,8.69-0.46c1.53-0.21,3.05-0.43,4.58-0.66c0.56-0.09,3.84-0.54,1.98-0.32c2.44-0.3,4.91-0.49,7.37-0.49
				c0.88,0,6.13,0.47,2.08-0.05c-3.57-0.46,1.87,1.3-2.82-1.01c-1.91-1.91-3.83-3.83-5.74-5.74c0.09,0.14,0.19,0.28,0.28,0.42
				c0-5.38,0-10.77,0-16.15c-0.09,0.18-0.18,0.35-0.27,0.53c1.91-1.91,3.83-3.83,5.74-5.74c3.75-2.1,2.29-0.74,0.81-0.7
				c-0.57,0.11-1.14,0.22-1.71,0.34c1.04-0.13,0.99-0.14-0.14-0.03c-3.22,0.3-6.48,0.42-9.71,0.38c-7.35-0.08-10.28-0.9-17.69-1.78
				c-4.23-0.5-8.14-0.3-12.13,1.38c-0.93,0.39-3.19,1.08-3.92,2.06c4.37-0.95,5.5-1.33,3.39-1.16c-0.68,0.03-1.36,0.08-2.04,0.15
				c-3.42,0.21-6.8,0.22-10.18,0.86c-2.09,0.39-5,1.27-6.62,2.38c-3.17,2.17,7.46-1.14,0.83-0.25c-3.35,0.45-6.12,1.15-9.25,2.47
				c-0.78,0.33-10.09,6.22-9.41,7.01c-0.58-0.68,3.81-0.79,1-0.9c-0.64-0.02-3.83,0.76-1.68,0.45c-3.17,0.47-6.44,0.78-9.64,0.88
				c-7.22,0.22-14.3-0.4-21.46,1.01c-7.49,1.47-16.96,5.05-20.3,12.53c-3.19,7.15-2.48,13.39,2.5,19.39
				c5.7,6.87,15.65,6.56,23.54,5.42C24,111.97,29.29,101,26.86,93.49C23.92,84.4,16.09,81.03,7.18,82.32
				c1.14-0.17,3.14,0.19,1.07-0.66c2.35,1.37,4.71,2.74,7.06,4.11c-0.18-0.21-0.36-0.43-0.53-0.64c0.83,6.46,1.67,12.93,2.5,19.39
				c-0.84,1.58-2.02,2.69-3.54,3.32c-1.11,0.49-0.72,0.4,1.17-0.27c0.52-0.13,4.12-0.88,3.23-0.79c1.07-0.1,5.63,0.05,7.82,0.08
				c7.08,0.07,14.07-0.64,21.07-1.68c6.81-1.01,14.59-3.97,18.89-9.7c2.02-2.69-5.58,3.17-1.81,1.1c0.44-0.09,0.89-0.18,1.33-0.27
				c-1.94,0.21-1.64,0.15,0.9-0.16c2.73-0.37,5.12-1.04,7.6-2.29c2.92-1.48-2.25,0.62-2,0.26c0.38-0.56,6.22-0.27,7.17-0.36
				c3.35-0.31,9.53-0.6,12.06-3.17c1.66-0.95,1.27-0.97-1.16-0.05c-2.63,0.45-2.87,0.7-0.73,0.76c0.37,0.15,4.37,0.53,3.25,0.38
				c2,0.27,6.85,1.01,10.07,1.3c6.16,0.55,12.39,0.37,18.53-0.34c7.69-0.89,16.64-2.15,20.55-9.97c2.48-4.97,3.28-11.24,0-16.15
				c-5.39-8.08-14.14-9.78-23.27-9.44c-4.49,0.17-8.98,0.86-13.42,1.51c-0.25,0.04-5.23,0.63-2.44,0.4
				c-1.09,0.12-2.19,0.16-3.29,0.12c0.95,0.02,1.87,0.22,2.75,0.61c2.45,3.19,4.9,6.37,7.35,9.56c0.09,0.76,0.18,1.53,0.27,2.29
				c-0.73,2.69-1.46,5.38-2.18,8.08c0.11-0.26,0.22-0.51,0.33-0.77c-1.91,1.91-3.83,3.83-5.74,5.74c0.23-0.14,0.45-0.28,0.68-0.42
				c-2.69,0.73-5.38,1.46-8.08,2.18c-2.29-0.15-4.09-0.49,0,0.05c1.42,0.19,2.66,0.35,4.07,0.33c3.01-0.03,6.2-0.64,9.05-1.66
				c1.23-0.44,4.49-1.62,5.97-2.68c1.52-1.1-0.79,0.78-1.62,0.21c1.03,0.72,7.87-1.03,9.64-1.27c6.04-0.81,12.04-1.68,17.85-3.59
				c5.56-1.83,11.94-3.6,17.08-6.39c7.72-4.19,9.82-14.51,5.74-21.89c-4.49-8.12-18.04-13.9-26.99-13.59
				c-4.93,0.17-10.11,1.07-14.74,2.79c-1.77,0.72-3.52,1.47-5.27,2.25c0.51-0.47,1.11-0.64,1.81-0.5c-2.06,0.11-4.13,0.03-6.19,0.03
				c-10.24-0.02-21.44-0.65-30.44,5.08C69.82,52.42,63.71,67.68,70.04,79.4c3.99,7.37,14.79,10.32,21.89,5.74
				C99.42,80.31,101.94,71.13,97.68,63.25L97.68,63.25z"/>
		</g>
	</g>
	<g class="st2">
		<g>
			<path class="st3" d="M107.9,103.65c0.12,0.12,0.24,0.24,0.36,0.37c2.35-8.91,4.71-17.83,7.06-26.74c1.03-0.38,2.95-0.22,0.65,0.1
				c-0.89,0.12-1.79,0.21-2.69,0.28c-2.2,0.18-4.41,0.23-6.62,0.3c-5.26,0.17-10.7,0.45-15.67,2.3c-3.18,1.18-5.96,2.47-8.62,4.53
				c-1.1,0.85-2.18,1.71-3.25,2.6c-1.98,1.63,1.83-1.24-0.34,0.26c-4.2,2.89-6.69,4.92-10.38,5.99c-2.24,0.65-4.57,1.18-6.88,1.5
				c1.68-0.23-0.64,0.02-1.08,0.05c-1.21,0.08-2.41,0.17-3.62,0.23c-1.07,0.05-2.15,0.07-3.22,0.11c-1.04,0.05-2.33-0.07-0.54,0.16
				c-2.44-0.32-4.85-1.15-7.22-1.77c-6.45-1.69-12.46-1.75-19.01-0.8c-0.91,0.16-0.96,0.17-0.17,0.04c1.26-0.2,0.73-0.13-1.57,0.2
				c-2.19,0.29-3.13,0.67-5.16,1.53c-2.08,0.97-2.52,1.13-1.32,0.47c0.85-0.41,0.79-0.46-0.18-0.16c-1.08-0.06-2.86,0.65-3.87,0.89
				c-11.14,2.72-16.2,18.89-7.06,26.74c0.11,0.09,0.22,0.19,0.33,0.28c6.34,5.45,16.48,6.7,22.63,0c5.5-5.99,6.78-16.81,0-22.63
				c-0.11-0.09-0.22-0.19-0.33-0.28c-2.35,8.91-4.71,17.83-7.06,26.74c2.05-0.5,4.18-0.83,6.17-1.53c1.27-0.54,2.55-1.08,3.82-1.61
				c-1.4,0.38-2.79,0.76-4.19,1.13c0.08,0.29,4.88-0.8,5.74-0.83c-1.94,0.06-0.81,0.15,0.44,0.23c4.96,0.33-1.33-0.52,1.45,0.21
				c2.38,0.62,4.72,1.31,7.13,1.8c10.71,2.18,22.79,1.19,33.26-1.85c5.21-1.52,10.14-3.78,14.6-6.86c1.77-1.22,3.56-2.41,5.27-3.69
				c1.49-1.11,2.95-2.27,4.39-3.44c1.12-0.9,1.29-1.31,0.15-0.09c-0.8,0.85-1.44,0.5,0.3-0.03c1.21-0.37,1.96-0.46,0.24-0.23
				c2.39-0.31,4.88-0.19,7.28-0.29c4.58-0.18,10.4-0.17,14.67-1.75c11.12-4.09,16-17.61,7.06-26.74c-0.12-0.12-0.24-0.24-0.36-0.37
				c-5.87-5.99-16.82-6.32-22.63,0C101.99,87.47,101.64,97.26,107.9,103.65L107.9,103.65z"/>
		</g>
	</g>
	<g class="st2">
		<g>
			<path class="st11" d="M173.11,104.05c10.31,0,20.98,0.92,29.93-5.27c3.17-2.2,5.45-4.72,7.65-7.88c1.66-2.38,2.12-5.51,3.72-7.81
				c-0.72,1.03-1.1,1.88,0.03,0.64c-1.01,1-2.03,1.99-3.05,2.99c0.4-0.2,0.8-0.41,1.2-0.61c0.82-0.17,2.27-0.6,0.59-0.18
				c1.4-0.35,2.82-0.67,4.25-0.87c2.87-0.4-1.75,0.01,1.14-0.07c1.26-0.04,2.53-0.01,3.79-0.04c3.24-0.08,6.54-0.43,9.71-1.07
				c2.74-0.55,5.61-1.6,8.01-2.98c1.22-0.7,2.27-1.59,3.38-2.45c0.79-0.5,1.5-1.09,2.13-1.77c0.69-0.64,0.68-0.69,0-0.15
				c0.23,0.34-3.07,1.11-0.88,0.5c0.99-0.28,1.94-0.75,2.94-1.03c0.33-0.09,3.27-0.59,1.66-0.43c-1.66,0.17,1.48,0.02,1.77,0.01
				c2.18-0.05,4.37,0.08,6.54-0.02c4.46-0.2,7.91-1.5,11.89-3.44c-7.83-3.19-15.67-6.37-23.5-9.56c0.05,0.25,0.11,0.5,0.16,0.75
				c0-2.84,0-5.67,0-8.51c-0.43,2.99-2.14,9.43,0.41,2.91c0.41-1.04,0.82-2.08,1.22-3.12c1.23-0.68,2.46-1.37,3.68-2.05
				c0.01,0.1-2.66,0.56-3.04,0.68c-5.09,1.61-9.26,4.87-13.03,8.53c-0.74,0.72-1.49,1.45-2.2,2.2c-0.02,0.02-1.87,1.81-0.73,0.81
				c1.28-1.12-3.95,2.09-1.73,1.21c0.34-0.13,3.5-0.03-0.92,0.08c-0.88,0.02-1.77,0-2.65-0.01c-2.24-0.01-4.5-0.18-6.73-0.07
				c-10.29,0.51-19.19,7.15-25.31,15.06c-0.42,0.54-0.83,1.08-1.25,1.62c0.77-0.71,0.8-0.75,0.09-0.1
				c-0.37,0.34-1.39,0.92-1.59,1.36c0.56-0.32,1.12-0.64,1.69-0.96c2.17-1.06,2.26-1.24,0.28-0.55c-0.24-0.1-3.18,0.83-0.45,0.19
				c3.51-0.82-3.24,0.41-3.2,0.4c-2.82,0.2-0.09-0.22,0.12-0.2c-2.43-0.22-4.95-0.03-7.39-0.03c-10.34,0-21.17,1.1-26.58,11.46
				c-3.55,6.81-3.09,15.68,2.55,21.31c4.52,4.52,10.26,5.43,16.27,6.18c10.66,1.33,18.62-3.77,27.14-9.29
				c1.61-1.04,3.25-2.04,4.89-3.04c0.06-0.03,2.35-1.23,0.9-0.54c-1.59,0.75,1.32-0.44,1.7-0.55c0.74-0.22,1.49-0.41,2.24-0.6
				c0.1-0.03,2.62-0.46,0.99-0.24c-1.92,0.27,1.74-0.07,2.04-0.08c1.28-0.06,2.55-0.09,3.83-0.16c12.06-0.69,21.44-4.18,30.7-11.94
				c3.45-2.89,8.36-7.72,9.41-12.14c0.37-1.55,0.2-0.27-0.4,0.22c-3.22,2.55,1.37-0.18-0.58,0.54c-1.72,0.63,0.53-0.05,0.74-0.09
				c-1.75,0.13-2.04,0.17-0.87,0.11c3.21-0.03,1.05-1-6.49-2.9c-1.37-2.35-2.74-4.71-4.11-7.06c0.74,2.48,1.28,1.41,1.62-3.21
				c1.91-4.41,1.99-5.5,0.23-3.25c-3.31,2.73,2.67-1.12-1.2,0.99c-0.3,0.16-3.58,1.82-2.22,1.21c0.9-0.41,0.53-0.27-1.11,0.42
				c-1.57,0.56-3.1,1.23-4.58,2c-1.02,0.47-1.01,0.51,0.05,0.13c-1.27,0.54-2.55,1.08-3.82,1.61c-1.49,0.65-2.96,1.34-4.4,2.08
				c-2.65,1.35-5.29,2.81-7.88,4.26c-5.93,3.3-11.7,6.52-16.36,11.52c-0.28,0.3-2.91,2.79-1.37,1.5c1.54-1.29-1.74,1.28-2.03,1.49
				c-0.45,0.32-4.71,2.47-2.14,1.58c-1.42,0.49-3,0.84-4.45,1.23c-2.83,0.77-3.55,0.64-7.08,0.69c-1.46,0.02-2.92,0.05-4.38,0.06
				c-0.27,0-5.35-0.42-2.32,0.14c-0.65-0.12-4.38-1.56-1.57-0.17c-1.04-0.51-2.03-1.13-3.04-1.7c-2.85-1.59-5.82-3.29-9.01-4.07
				c-6.8-1.66-14.55-1.25-21.42-0.43c-7.19,0.86-15.54,1.08-21.6,5.62c-5.3,3.97-8.57,9-7.64,15.94c0.8,5.96,5.29,11.96,11.46,13.3
				c5.68,1.23,11.12,1.79,16.85,0.75c5.64-1.02,10.04-4.13,14.4-7.64c0.58-0.46,1.15-0.92,1.71-1.4c-1.34,0.98-1.26,0.95,0.25-0.07
				c2.48-1.23,1.81-1.23-1.99,0c0.8,0.03,1.6,0.01,2.4-0.07c1.69-0.12,3.38-0.33,5.05-0.63c-0.82,0.28-1.67,0.4-2.54,0.37
				c-0.11,0.77,7.89,1.55,7.71,1.53c10.57,1,17.92-11.01,15.43-20.25c-3.29-12.2-17.5-16.43-28.49-13.03
				c-3.55,1.1-7.05,2.51-10.7,3.17c-1.95,0.35-3.9,0.63-5.84,1.06c-1.14,0.28-2.27,0.57-3.41,0.85c-3.52,0.64-2.26,0.74,3.77,0.32
				c2.35,1.37,4.71,2.74,7.06,4.11c-0.25-0.21-0.49-0.43-0.74-0.64c1.37,2.35,2.74,4.71,4.11,7.06c-0.1-0.29-0.2-0.59-0.3-0.88
				c0,2.84,0,5.67,0,8.51c-1.72,8.85-4.07,4.35-1.4,3.32c0.68-0.26,1.82-1.11,0.41-0.27c0.33-0.2,3.71-1.95,2.33-1.38
				c-1.21,0.49,2.94-0.79,2.9-0.78c5.58-1.49,11.54-2.77,16.39-6.08c1.61-1.1,3.25-2.33,4.54-3.79c0.83-1.08,1.67-2.16,2.5-3.24
				c-1.88,1.51-3.76,3.02-5.64,4.53c-1.76,0.17-2.04,0.2-0.82,0.1c0.47-0.06,0.95-0.08,1.42-0.05c1.2,0.04,0.96-0.03-0.72-0.21
				c0.61,0.13,1.23,0.26,1.84,0.39c6.53,1.32,14.58,1.96,20.9-0.71c7.68-3.24,14.08-10.72,11.18-19.68
				c-2.38-7.37-11.42-14.66-19.68-11.18c-1,0.42-1.96,0.53-3,0.8c-0.94,0.17-0.98,0.18-0.11,0.02c1.25-0.18,0.83-0.22-1.27-0.13
				c1.42,0.28-1.25-0.36-1.36-0.38c-2.07-0.41-4.25-0.72-6.36-0.87c-7.04-0.49-14.79,1.35-20.06,6.2c-0.84,0.77-5.81,6.47-1.69,2.53
				c4.02-3.84-1.44-0.2,1.46-1.33c-2.59,1.01-5.36,1.51-8.03,2.22c-6.88,1.84-12.49,4.91-18.04,9.28
				c-4.99,3.94-9.44,9.67-9.14,16.43c0.44,9.8,8.44,18.07,18.52,17.75c5.75-0.18,11.95-1.94,17.58-3.15
				c2.62-0.57,5.11-1.57,7.67-2.37c0.7-0.22,2.42-0.4,2.94-0.91c-1.93,1.91-6.61-1.87-7.7-2.78c-1.37-2.35-2.74-4.71-4.11-7.06
				c0.07,0.25,0.14,0.5,0.2,0.76c5.14-6.75,10.29-13.5,15.43-20.25c7.05,0.67-5.39-1.43-5.07-1.4c-2.4-0.18-4.84,0.62-7.15,0.45
				c2.94,0.22-1.38-0.11-2-0.05c-3.99,0.37-6.79,1.24-10.39,3.04c-3.75,1.87-6.64,4.76-10.02,7.17c1.31-0.99,1.19-0.97-0.34,0.05
				c0.37-0.16,0.73-0.33,1.1-0.49c1.54-0.18,1.3-0.25-0.73-0.21c1.42,0.2,1.18,0.12-0.71-0.24c1.27,9.75,2.55,19.5,3.82,29.24
				c1.94-1.45-0.26-0.25-0.8-0.04c0.77-0.31,1.56-0.45,2.36-0.67c2.95-0.81,0.73-0.18-0.02-0.07c1.29-0.19,2.61-0.31,3.91-0.47
				c1.26-0.15,15.81-0.46,15.77-0.33c-0.25,0.87-6.64-3-3.18-0.47c0.66,0.48,1.62,0.87,2.31,1.25c2.48,1.37,4.82,2.59,7.52,3.57
				c5.03,1.83,10.49,2.25,15.81,2.19c10.67-0.12,22.6-0.85,31.86-6.85c3.98-2.58,8.13-5.59,11.36-9.05
				c0.54-0.57,1.25-1.34,1.75-1.99c-1.33,1.75-1.27,0.79,0.01,0.17c2.57-1.24,4.93-2.86,7.4-4.28c3.75-2.16,7.63-4.21,11.54-6.08
				c-1.57,0.75-3.04,1.9,2.98-1.28c0.23-0.12,2.72-1.48,0.72-0.5c2.88-1.41,6.02-2.29,8.82-3.88c10.86-6.18,19.31-18.18,14.69-31.02
				c-5.41-15.05-22.51-15.89-35.02-9.75c-4.96,2.44-9.15,6.42-11.74,11.3c-0.17,0.31-1.42,3.32-0.71,1.93
				c0.67-1.31-0.99,1.2-1.3,1.52c-0.76,0.78-1.57,1.51-2.4,2.21c-1.33,1.13,1.18-0.88-1.12,0.77c-2.19,1.57-1.22,0.81-0.27,0.44
				c-1.33,0.51-2.93,0.81-4.33,1.1c0.4-0.08,3.52-0.19-1.41,0.2c-1.59,0.13-3.19,0.13-4.78,0.21c-5.95,0.3-11.86,1.13-17.4,3.39
				c-5.42,2.21-10.12,5.1-14.98,8.32c-0.91,0.6-1.82,1.23-2.75,1.82c-0.71,0.48-1.45,0.92-2.21,1.33c-0.98,0.54-1.01,0.57-0.08,0.07
				c1.46-0.16,0.8,0.05-0.77-0.36c0.4,0.05,0.81,0.1,1.21,0.15c-1.96-0.44-1.89-0.34,0.2,0.31c2.45,3.19,4.9,6.37,7.35,9.56
				c-0.09-0.31-0.18-0.61-0.27-0.92c0,2.84,0,5.67,0,8.51c-2.41,2.33-4.82,4.66-7.23,6.99c-1.89,0.18-2.22,0.25-0.97,0.21
				c1.23,0.15,2.72,0,3.93,0c2.75,0,5.49,0.01,8.24,0.01c2.52,0.01,4.53-0.24,7.15-0.57c2.16-0.27-0.07-0.02-0.97,0.15
				c3.45-0.66,6.31-0.77,9.56-2.06c3.8-1.5,6.85-3.6,9.96-6.21c0.99-0.83,1.76-1.69,2.57-2.68c0.83-1.08,1.67-2.16,2.5-3.24
				c-0.86,0.87-0.92,0.91-0.18,0.12c0.32-0.34,2.74-2.69,0.76-1.08c0.8-0.65,1.76-1.1,2.58-1.72c3.23-2.44-4.36-0.09-1.72,0.45
				c1.25,0.26,2.97,0.06,4.21,0.08c7,0.08,13.64-0.73,19.9-4.12c4.81-2.6,10.1-6.8,13.55-11.14c1.7-2.14-5.51,1.84-1.27,0.97
				c1.66-0.34,3.11-1,4.67-1.66c3.12-1.32,5.91-3.27,8.13-5.85c3.54-4.11,5.33-8.52,5.93-13.86c0.3-2.7,0.02-0.48-0.18,0.93
				c0.47-3.46,0.56-5.91-0.16-9.26c-2.31-10.78-14.8-13.8-23.5-9.56c3.9-0.76,4.47-1.06,1.73-0.92c-1.07,0-2.15,0-3.22,0
				c-3.03,0.05-5.94,0.33-8.95,0.81c-4.41,0.71-8.59,2.33-12.63,4.24c-0.94,0.36-1.8,0.86-2.6,1.48c-1.53,1-2.93,2.14-4.21,3.43
				c0.69-0.46,1.44-0.8,2.24-1.03c-1.76,0.37-1.93,0.47-0.5,0.32c-5.33,0.89-10.88,0.46-16.29,1.38
				c-10.47,1.78-19.86,7.28-24.1,17.33c-0.86,2.03-2.06,4.12-0.3,1.28c1.74-1.16,1.86-1.3,0.34-0.44c-2.22,0.94-1.47,0.84,2.27-0.3
				c-0.06-0.37-12.84-0.01-14.05-0.01c-8.37,0-16.39,7.36-16,16C157.5,96.72,164.14,104.06,173.11,104.05L173.11,104.05z"/>
		</g>
	</g>
	<g class="st2">
		<g>
			<path class="st6" d="M54.36,119.2c-1.73-0.01-3.36,0.12-5.08,0.36c0.43-0.06-4.98,0.66-3.32,0.49c1.71-0.18-2.27,0.06-2.63,0.06
				c-1.06,0.02-2.12,0.02-3.18,0.02c-5.09,0.01-10.12-0.89-15.22-0.92c-6.98-0.05-14.13,1.43-19.27,6.42
				c-5.78,5.61-7.67,15.45-3.32,22.39c4.52,7.21,12.78,8.79,20.68,8.05c5.43-0.51,10.25-2.62,15.55-3.37
				c-3.39,0.48,2.27,0.17-0.71-0.01c-2.39-0.15,1.26,0.45,1.52,0.51c2.88,0.63,6.02,1.07,8.98,1.02c7.15-0.11,12.78-3.13,18.12-7.59
				c-2.35,1.37-4.71,2.74-7.06,4.11c-1.08,0.43-5.05-0.97-1.53,0.36c1.44,0.55,2.52,0.8,4.02,1.04c4.38,0.69,8.39,0.82,12.73-0.5
				c1.81-0.55,3.65-1.33,5.34-2.16c0.46-0.42,0.98-0.73,1.57-0.93c2.16-0.9,0.88-0.63-3.85,0.82c0.81,0.35,4.2-0.65,1.41,0
				c0.48,0.13,0.95,0.26,1.43,0.4c-1.6-0.85-1.94-0.98-1.04-0.38c-2.45-3.19-4.9-6.37-7.35-9.56c0.03,0.13,0.06,0.26,0.09,0.39
				c0.54-4.11,1.08-8.22,1.61-12.33c-0.09,0.21-0.19,0.42-0.28,0.64c1.91-1.91,3.83-3.83,5.74-5.74c0.81-0.73,1.75-1.11,2.82-1.16
				c-1.05-0.01-2.11-0.02-3.16-0.02c-2.34,0.08-4.82,0.23-7.09,0.82c-1.67,0.7-3.35,1.41-5.02,2.12c-1.62,0.79-1.77,0.85-0.46,0.19
				c-0.42,0.15-0.85,0.3-1.27,0.46c1.72-0.22,1.61-0.26-0.33-0.13c-9.11-0.44-17.57-1.2-26.66,0.09c2.76-0.39-2.51,0.19-2.72,0.19
				c-2.13,0.09-4.3-0.21-6.41-0.07c-1.46-0.11-1.22-0.04,0.73,0.2c-1.81-0.34-3.63-0.55-5.46-0.66c-0.98-0.08-1.97-0.12-2.95-0.2
				c-9.7-0.76-20.8,0.01-26.35,9.5c-3.9,6.67-2.4,15.37,3.11,20.63c4.37,4.17,9.68,4.99,15.45,5.67c8.38,0.99,16.26-0.1,24.6-0.81
				c8.4-0.72,16.53,0.09,24.91,0.45c4.86,0.21,9.67-0.2,14.45-1.2c1.66-0.35,3.21-0.87,4.79-1.46c4.31-1.88,5.08-2.18,2.33-0.91
				c2.99-0.65,1.72-0.78-3.8-0.39c-3.19-2.45-6.37-4.9-9.56-7.35c0.11,0.14,0.22,0.29,0.33,0.43c0-5.38,0-10.77,0-16.15
				c-0.14,0.18-0.28,0.37-0.43,0.55c3.19-2.45,6.37-4.9,9.56-7.35c-1.12,0.47-4.98,1.11-0.14,0.44c-1.34,0.19-2.7,0.34-4.04,0.52
				c-4.3,0.58-7.94,2.02-11.17,5.15c-8.6,8.33-4.5,23.73,7.06,26.74c2.44,0.64,5.13,0.92,7.68,0.99c1.28,0.04,2.53-0.09,3.8-0.24
				c0.2-0.02,6.43-0.53,3.22-0.39c5.48-0.24,11.13-0.4,16.59,0.08c6.88,0.61,13.47,0.7,19.26-3.77c6-4.63,10.86-13.76,8.35-21.52
				c-2.75-8.5-10.25-13.1-19.03-12.91c-2.8,0.06-6.37,0.28-9.02,1.34c-2,0.8,2.87,0.21-0.97,0.22c-0.97,0-2.02,0.08-2.98-0.09
				c4.59,0.79-1.7-1.06,1.05-0.03c0.97,0.38,1.04,0.41,0.23,0.06c-1.45-0.63-2.91-1.24-4.37-1.85c-2.6-0.89-5.3-1.31-8.02-1.68
				c-6.37-0.86-13.87-1.3-19.47,2.41c-6.96,4.62-10.61,14.34-5.74,21.89c4.48,6.95,14.43,10.69,21.89,5.74
				c-5.66,1.11-6.86,1.58-3.59,1.42c0.76-0.03,1.52-0.03,2.28,0.02c1,0.05,1,0.04,0-0.03c0.78,0.14,1.54,0.31,2.31,0.52
				c1.16,0.35,0.87,0.15-0.88-0.57c1.61,0.79,3.25,1.5,4.92,2.14c1.25,0.49,2.43,0.91,3.75,1.2c3.75,0.84,7.72,1,11.53,0.62
				c2.56-0.26,4.9-0.67,7.35-1.34c1.83-0.35,1.74-0.35-0.25,0.01c1.84,0.02,1.52-0.03-0.97-0.13c-3.19-2.45-6.37-4.9-9.56-7.35
				c0.1,0.24,0.21,0.48,0.31,0.73c-0.54-4.11-1.08-8.22-1.61-12.33c-0.22,1.02-0.16,1.02,0.18,0c1.21-3.54,4.19-5.6,8.96-6.18
				c-1.45-0.36-3.49-0.3-4.97-0.44c-3.18-0.3-6.31-0.29-9.51-0.28c-3.22,0.01-6.43-0.08-9.63,0.28c-1.42,0.19-2.84,0.38-4.25,0.57
				c1.59-0.21,1.39-0.24-0.58-0.09c-1.49-0.12-4.44-1.11,0.27,0.12c2.35,8.91,4.71,17.83,7.06,26.74c0.11-0.11,0.22-0.21,0.33-0.32
				c-2.35,1.37-4.71,2.74-7.06,4.11c2.68-0.92-3.94,0.35-0.69-0.09c2.05-0.28,4.2-0.38,6.21-0.85c5.65-1.31,8.97-4.15,12.42-8.64
				c3.07-4,3.04-12.15,0-16.15c-4.02-5.29-8.38-8.17-15.14-8.55c-4.73-0.27-8.76,1.54-13.01,3.17c3.37-1.29-1.32,0.2-2.07,0.37
				c-2.08,0.41-2.39,0.45-0.93,0.12c-0.55,0.01-1.11,0.02-1.66,0.03c-3.85-0.36-7.77-0.37-11.62-0.66
				c-7.03-0.53-13.95-0.22-20.96,0.53c-3.75,0.4-7.47,0.93-11.25,0.96c-1.82,0.02-3.64-0.06-5.45-0.2c-0.9-0.06-1.8-0.15-2.7-0.26
				c2.24,0.12,4.15,1.14,5.73,3.06c1.56,3.77,3.12,7.54,4.69,11.31c-0.01-0.23-0.03-0.47-0.04-0.7c-1.56,3.77-3.12,7.54-4.69,11.31
				c-1.51,1.71-3.49,2.58-5.94,2.6c0.92-0.01,1.84,0.03,2.75,0.11c1.77,0.13,3.52,0.35,5.29,0.46c4.91,0.32-3.03-0.61,2.44,0.13
				c2.37,0.32,4.7,0.53,7.1,0.57c5.59,0.09,10.89-1.33,16.41-1.64c-3.16,0.18,2.26,0.38,2.69,0.4c2.43,0.15,4.84,0.52,7.27,0.72
				c4.6,0.39,9.47,0.39,14-0.57c2.84-0.6,5.59-1.53,8.21-2.86c1.78-0.79,1.79-0.84,0.05-0.16c-1.9,0.32-1.89,0.42,0.04,0.33
				c13.47,1.4,27.86-9.78,21.77-24.21c-4.44-10.52-19.65-13.86-29.97-11.32c-1.75,0.5-3.43,1.16-5.06,2
				c-0.81,0.43-1.64,0.81-2.49,1.16c2.38-0.72,2.67-0.81,0.89-0.29c1.19-0.31,2.36-0.26,3.51,0.16c-0.15-0.39-3.88-1.3-4.26-1.4
				c-2.77-0.76-5.69-0.99-8.55-0.83c-3.95,0.22-9.98,1.66-12.42,5.13c-1.41,1.11-0.89,0.87,1.55-0.71c1.05-1.24,2.25-1.6,3.61-1.07
				c-0.89,0-1.79-0.02-2.68-0.07c1.96,0.3,2.05,0.25,0.29-0.13c-2.53-0.78-5.24-1.21-7.88-1.2c-4.24,0.01-8.77,0.77-12.83,2.01
				c-1.9,0.58-3.71,1.35-5.71,1.56c4.04-0.44-5.38-1.21,0.19,0.11c3.19,2.45,6.37,4.9,9.56,7.35c-0.1-0.18-0.21-0.35-0.31-0.53
				c0.54,4.11,1.08,8.22,1.61,12.33c-0.28,2.02-6.31,8.63-8.49,7.58c0.63,0.3,3.48,0,4.24,0.03c3.01,0.1,5.96,0.41,8.96,0.69
				c2.94,0.28,5.98,0.25,8.94,0.12c2.47-0.11,4.87-0.6,7.34-0.85c3.47-0.36-1.3-0.05,2.11-0.03c8.37,0.05,16.39-7.39,16-16
				C69.97,126.49,63.33,119.25,54.36,119.2L54.36,119.2z"/>
		</g>
	</g>
	<g class="st12">
		<g>
			<path class="st5" d="M209.07,130.41c10.14,0.23,19.07-2.08,24.17-11.68c4.29-8.08,2.86-18.86-0.72-27.01
				c-4.53,8.78-5.19,11.58-1.99,8.4c-1.04,0.62-2.07,1.23-3.11,1.85c1.03-0.29,2.07-0.51,3.13-0.65c-1.66,0.17-1.93,0.21-0.8,0.13
				c0.66-0.06,1.32-0.07,1.98-0.03c-6.22-0.15-8.86-5.14-7.91-14.96c-1.47,1.54-2.1,4.36-2.76,6.38
				c-3.56,10.75-0.64,23.73,11.7,26.66c12.23,2.9,24.18-4.58,24.98-17.54c0.7-11.48-7.11-17.56-17.08-20.58
				c-11.26-3.41-24.52-2.01-28.6,11.01c-1.42,4.52-1.84,9.82-0.68,14.48c0.57,2.31,1.64,4.43,2.92,6.4
				c1.02,1.59,2.21,3.03,3.56,4.32c2.83,2.8,2.33,0.68-1.48-6.36c0.73-2.69,1.46-5.38,2.18-8.08c-0.14,0.26-0.28,0.52-0.42,0.78
				c1.91-1.91,3.83-3.83,5.74-5.74c0.66-0.31,1.32-0.63,1.97-0.94c-1.18,0.2-1.2,0.22-0.04,0.06c1.07-0.13,1.14-0.14,0.23-0.04
				c-0.69,0.08-1.39,0.13-2.09,0.13c-0.98,0.03-1.96-0.03-2.93-0.04c3.17,0.02-1.94-0.35-3.72-0.41
				c-8.87-0.29-16.61,4.32-19.36,13.03c-5.52,17.53,16.15,28.27,30.39,26.36c12.51-1.68,24.09-10.41,27.31-22.89
				c0.85-3.27,0.98-6.76,1.29-10.11c0.11-1.15,0.26-3.52-0.05-1.09c0.11-0.91,0.39-1.8,0.5-2.7c-0.26,2.36-0.06,0.66,0.48-0.56
				c0.79-1.78-0.93,1.02-0.93,1.03c0.21-0.46,2.2-1.42,0.25-0.25c1.71-0.42,2.02-0.57,0.93-0.44c-1.07,0.04-0.76,0.12,0.92,0.23
				c-2.69-0.73-5.38-1.46-8.08-2.18c-3.44-2.18-5.25-5.07-5.41-8.68c6.57-8.59,7.97-11.51,4.22-8.77c-2.07,1.08-4.63,2.88-6.2,4.42
				c-1.47,1.45-2.79,3.19-3.84,4.96c-0.45,0.79-0.86,1.6-1.23,2.44c-2.37,5.25-2.13,5.11,0.72-0.42c1.4-1.11,1.33-1.19-0.22-0.24
				c1.63-0.63,1.57-0.62-0.17,0.04c-2.17,0.8-4.49,1.48-6.48,2.69c-5.24,3.2-8.92,8.25-10.22,14.26
				c-1.76,8.16,2.42,17.69,11.18,19.68c8.05,1.83,17.8-2.42,19.68-11.18c0.54-1.93,0.19-1.58-1.06,1.04
				c-0.84,2.12-2.37,3.57-4.59,4.35c0.92,0.23,3.94-1.57,4.59-1.85c3.67-1.55,6.98-3.42,9.92-6.18c1.56-1.46,3.01-3.2,3.99-5.1
				c0.54-1.27,1.08-2.55,1.61-3.82c-0.86,1.82-1,2.17-0.41,1.03c1.8-2.74-5.81,4.15-2.12,2.1c1.03-0.58,1.94-1.26,2.89-1.96
				c7.53-5.65,11.38-13.79,9.02-23.24c-2.41-9.66-10.06-15.53-20.05-15.52c-15.51,0.02-28.81,12.99-30.95,27.83
				c-0.5,3.47-0.44,7.15-1.14,10.57c0.24-1.44,0.11-1.19-0.37,0.77c0.16-0.47,0.31-0.94,0.47-1.4c0.74-0.89,3.3-2.58,0.88-1.27
				c-0.44,0.24-3.74,1.56-1.71,0.93c1.11-0.47,0.9-0.44-0.64,0.08c0.51-0.06,1.01-0.12,1.52-0.18c-1.64-0.05-1.85-0.03-0.64,0.08
				c1.2,0.18,1.01,0.08-0.57-0.31c0.96,0.43,3.59,2.48,1.38,0.21c1.37,2.35,2.74,4.71,4.11,7.06c-0.17-0.43-0.33-0.85-0.5-1.28
				c0,2.84,0,5.67,0,8.51c0.12-0.36,0.25-0.72,0.37-1.08c-2.45,3.19-4.9,6.37-7.35,9.56c-2.1,1.34-4.26,1.72-6.48,1.15
				c1.95,0.34,3.9,0.57,5.87,0.7c1.89,0.1,3.77,0.01,5.65-0.16c5.42-0.5,10.56-1.21,14.97-4.63c5.88-4.54,8.07-12.37,5.95-19.47
				c-0.87-2.9-3.29-7.61-6.02-9.18c-2.49-2.49-2.11-0.82,1.13,5.01c-0.05,1.06-0.35,2.06-0.9,2.99c-3.19,2.45-6.37,4.9-9.56,7.35
				c-3,0.93-4.44-0.29-0.91,0.72c3.68,1.06,4.94,3.12-1.12-1.76c-1.37-2.35-2.74-4.71-4.11-7.06c-0.49-1.51-0.49-3.02-0.02-4.53
				c1.37-2.35,2.74-4.71,4.11-7.06c-0.25,0.26-0.5,0.52-0.74,0.77c2.35-1.37,4.71-2.74,7.06-4.11c2.69-0.25,3.38-0.33,2.07-0.25
				c-1.19,0.03-0.63,0.18,1.69,0.46c2.35,1.37,4.71,2.74,7.06,4.11c-0.18-0.2-0.36-0.4-0.54-0.6c1.56,3.77,3.12,7.54,4.69,11.31
				c-0.08-1.74-0.17-1.57-0.28,0.53c0.18-0.84,0.42-1.67,0.7-2.48c-0.67,1.68-0.62,1.69,0.17,0.03c0.54-1.27,1.08-2.55,1.61-3.82
				c2.2-5.87,1.01-12.27-2.31-17.47c-6.91-10.8-18.72-11.64-30.13-9.49c-11.14,2.1-20.64,11.57-20.49,23.23
				c0.05,4.36,1.41,8.76,2.86,12.83c0.29,1.13,0.37,0.96,0.24-0.49c-0.08,2.85,0.31,2.06,1.18-2.38c9.28-3.73,11.58-5.5,6.91-5.29
				c-0.96-0.05-1.92-0.08-2.88-0.09c-8.37-0.19-16.38,7.5-16,16C193.47,123.24,200.1,130.2,209.07,130.41L209.07,130.41z"/>
		</g>
	</g>
	<g class="st2">
		<g>
			<path class="st11" d="M-9.46,125.33c3.12,10.51,12.15,13.17,21.96,13.49c3.36,0.11,6.88-0.16,10.1-1.16
				c2.11-0.65,4.27-1.7,6.2-2.77c0.34-0.19,3.57-2.2,1.71-1.24c-1.71,0.88,2.34-0.61,2.47-0.64c0.52-0.11,1.04-0.23,1.56-0.34
				c-1.31,0.17-1.4,0.24-0.27,0.21c1.18,0.02,1.04,0.01-0.4-0.04c0.49,0.18,0.98,0.35,1.47,0.53c4.35,2.42-2.22-1.83,1.83,1.1
				c5.67,4.09,14.27,7.75,21.21,4.91c6.38-2.61,12.09-7.86,11.75-15.43c-0.32-7.16-4.76-13.36-11.75-15.43
				c-5.46-1.62-13.17-1.63-18.6,0.04c-3.76,1.16-7.32,3.12-10.23,5.76c-0.78,0.71-1.59,1.56-2.22,2.39
				c-1.03,1.34,1.07-0.5,1.39-0.77c1.38-1.2-0.92,0.23-1.78,0.41c2.41-0.49-0.51-0.11-1.56-0.11c-0.34,0-3.93,0.06-1.97,0.07
				c1.15,0.17,0.94,0.15-0.62-0.07c-1.42-0.19-2.84-0.38-4.25-0.57c3.53,0.53-0.92-0.2-1.97-0.34c-1.43-0.19-2.84-0.4-4.28-0.5
				c-4.13-0.28-8.51,0.33-12.08,2.52c-15.72,9.6-10.6,31.14,3.66,39.18c8.44,4.76,16.82,3.11,24.11-2.64
				c0.93-0.73,1.82-1.51,2.75-2.23c0.72-0.59,0.79-0.64,0.2-0.16c-0.8,0.63-0.49,0.46,0.9-0.51c-0.52-0.13-1.74,0.35-2.38,0.32
				c-3.2-0.14-7.65-3.41-8.31-6.6c0-2.84,0-5.67,0-8.51c-0.05,0.32-0.1,0.65-0.15,0.97c1.37-2.35,2.74-4.71,4.11-7.06
				c-0.18,0.18-0.36,0.36-0.54,0.55c2.35-1.37,4.71-2.74,7.06-4.11c2.83-0.21,3.35-0.3,1.56-0.27c1.32-0.06,2.54,0.3,3.66,1.09
				c1.91,1.91,3.83,3.83,5.74,5.74c-0.14-0.22-0.27-0.45-0.41-0.67c-3.19,7.83-6.37,15.67-9.56,23.5c-2.26,0.12-2.5,0.2-0.71,0.25
				c0.94,0,1.88,0,2.83,0c8.37-0.01,16.39-7.36,16-16c-0.39-8.67-7.03-16-16-16c-0.55,0-1.1,0-1.66,0c-8.37,0-16.39,7.36-16,16
				c0.39,8.67,7.03,16,16,16c0.55,0,1.1,0,1.66,0c0-10.67,0-21.33,0-32c-3.59,0-7.16-0.36-10.62,0.89
				c-9.43,3.42-15.31,14.09-9.56,23.5c4.96,8.12,15.71,11.36,24.78,9.06c11.86-3.01,16.42-16.77,10.54-27
				c-4.39-7.63-13.24-11.94-21.93-11.16c-4.91,0.45-9.4,2-13.55,4.7c-1.79,1.16-3.43,2.56-5.09,3.89c-0.6,0.47-1.2,0.95-1.78,1.44
				c-2.33,1.83-1.45,1.37,2.64-1.37c2.84,0,5.67,0,8.51,0c0.83,0.16,2.78,2.55,1.87,1.19c-0.92-0.95-0.76-0.52,0.48,1.27
				c1.87,2.6,2.04,5.58,0.52,8.95c-1.91,1.91-3.83,3.83-5.74,5.74c0.38-0.21,0.76-0.43,1.14-0.64c-2.69,0.73-5.38,1.46-8.08,2.18
				c1.17-0.09,5.81,0.39,2.78-0.08c1.85,0.29,3.71,0.56,5.57,0.78c-1.51-0.18-1.98-0.28-0.19-0.02c6.35,0.93,12.79,1.1,19.08-0.48
				c5.2-1.3,10.02-3.97,13.86-7.71c0.34-0.31,0.65-0.64,0.93-0.99c0.64-0.65,0.57-0.67-0.2-0.07c-0.07,0.01-2.32,0.98-2.37,1.03
				c-0.93,0.15-0.92,0.21,0.02,0.17c0.47,0.01,0.94,0.02,1.41,0.02c1.42,0,3.19,0.79,0.14-0.12c0-10.29,0-20.57,0-30.86
				c0.92-0.38,6.49-0.62,7.28,0.7c-0.32-0.54-2.06-1.17-2.62-1.53c-2.54-1.62-4.94-2.81-7.77-3.99c-5.51-2.29-11.01-3.23-16.96-2.43
				c-5.41,0.73-10.63,2.07-15.39,4.87c-0.36,0.21-2.59,1.98-1.04,0.9c1.07-0.74-0.85-0.2,0.07-0.01c1.36,0.28-1.17-0.31-1.75-0.23
				c-1.44,0.21,1.25,0.45,2.59,1.23c2.45,3.19,4.9,6.37,7.35,9.56c-0.08-0.26-0.15-0.51-0.23-0.77
				c-2.38-8.02-11.35-13.87-19.68-11.18C-6.4,108.27-12.01,116.74-9.46,125.33L-9.46,125.33z"/>
		</g>
	</g>
	<g class="st2">
		<g>
			<path class="st8" d="M196.99,155.14c5.45,0,10.96,0.31,16.34-0.76c5.65-1.13,11.21-4,15.75-7.5c5.55-4.29,8.62-9.56,11.46-15.86
				c-0.53,1.19,0.33-0.16,0.28-0.5c0.17-0.37,0.34-0.75,0.51-1.12c-1.07,0.98-2.15,1.97-3.22,2.95c-0.42,0.23-3.28,0.62-1.52,0.52
				c1.44-0.07-1.2-0.52-1.96-0.9c-1.91-1.91-3.83-3.83-5.74-5.74c0.17,0.26,0.34,0.52,0.51,0.79c-0.73-2.69-1.46-5.38-2.18-8.08
				c-0.02,0.37-0.04,0.73-0.05,1.1c0.73-2.69,1.46-5.38,2.18-8.08c1.49-1.79,1.65-2.05,0.49-0.77c-1.3,1.38-1.13,1.36,0.52-0.06
				c-1.96,1.32-3.67,2.12-5.54,3.84c-4.37,4.02-7.11,9.67-6.58,15.72c0.28,3.25,0.96,6.31,2.68,9.15c1.05,1.41,2.14,2.8,3.25,4.16
				c-0.32-0.38-0.63-0.76-0.95-1.15c0.81,1.68,0.84,1.75,0.09,0.2c0.45,1.89,0.48,1.91,0.09,0.06c-0.02,0.44-0.03,0.88-0.05,1.33
				c0.14-4.06,2.15-6.95,6.03-8.68c1.46-0.16,1.58-0.2,0.39-0.14c-1.27,0-1.07,0.05,0.6,0.16c2.73,0.3-0.75-0.66-1.76-1.23
				c-4.63-2.58-9.62-3.96-14.95-3.78c-6.38,0.22-12.58,2.31-17.47,6.4c-0.26,0.21-3.57,2.76-1.07,0.82
				c-1.71,0.88-1.91,1.05-0.59,0.49c1.52-0.07,1.43-0.1-0.26-0.08c2.69,0.73,5.38,1.46,8.08,2.18c-0.37-0.22-0.74-0.44-1.11-0.66
				c2.45,3.19,4.9,6.37,7.35,9.56c-0.08-0.36-0.15-0.72-0.23-1.08c-0.54,4.11-1.08,8.22-1.61,12.33c-0.7,1.11-1.68,1.85-2.96,2.24
				c-2.17,0.97-2.57,1.25-1.19,0.82c0.85,0,3.29-0.43,1.12-0.29c3.01-0.19,6.03-0.07,9.05-0.25c6.43-0.38,13.78-0.63,19.39-4.23
				c3.99-2.56,9.25-7.18,11.38-11.49c4.83-9.8-0.18-23.91-12.04-25.58c-8.25-1.16-17.59,2.01-19.68,11.18
				c-1.72,7.55,2.31,18.43,11.18,19.68c0.39,0.06,0.79,0.11,1.18,0.17c-2.35-1.37-4.71-2.74-7.06-4.11c0.31,0.25,0.62,0.5,0.93,0.75
				c-1.37-2.35-2.74-4.71-4.11-7.06c0.12,0.39,0.25,0.77,0.37,1.16c0.54-4.11,1.08-8.22,1.61-12.33c1.59-3.48,1.22-1.41-0.05-0.18
				c-0.47,0.4-0.93,0.81-1.39,1.22c-1.6,1.38-0.38,0.77,3.67-1.82c-0.04,0-4.47,0.72-2.35,0.52c-1.49,0.15-3.04,0.18-4.54,0.25
				c-7.9,0.4-15.78,0.09-22.99,3.91c-10.22,5.41-16,20.97-6.41,29.77c8.29,7.61,19.57,6.07,28.71,0.97
				c1.91-1.07,3.62-2.38,5.32-3.76c3.69-2.99-0.39-1.03-1.12,0.5c1.72-0.4,2.06-0.47,1.02-0.19c-0.54,0.21-1.1,0.25-1.68,0.12
				c-1.14-0.17-1.27-0.09-0.39,0.26c0.56,0.29,1.14,0.57,1.72,0.83c8.36,4.05,17.08,5.23,25.85,1.53
				c9.13-3.85,14.09-12.44,14.13-22.2c0.02-4.88-1.36-9.39-3.32-13.78c-0.49-1.11-0.99-2.2-1.6-3.25c-0.83-1.38-1.79-2.66-2.88-3.85
				c-1.2-1.29-1.05-1.16,0.46,0.37c0.73,2.69,1.46,5.38,2.18,8.08c-6.36,7.8-7.6,10.49-3.72,8.07c1.47-0.96,2.88-2.01,4.22-3.16
				c0.87-0.81,1.69-1.66,2.48-2.56c4.65-5.31,7.06-11.26,5.45-18.36c-2.97-13.04-19.99-15.78-30.78-12.51
				c-5.69,1.72-10.87,5.32-13.86,10.54c-0.78,1.36-1.39,2.88-2.02,4.32c-1.59,4.04-2.07,5.13-1.42,3.26
				c-0.9,1.41-1.06,1.73-0.46,0.94c0.64-0.78,0.36-0.53-0.82,0.75c1.2-0.87,1.01-0.82-0.55,0.13c-0.79,0.41-1.57,0.82-2.34,1.26
				c1.22-0.53,1.24-0.61,0.06-0.23c-1.3,0.33-1.16,0.33,0.41,0c-1.06-0.01-2.12-0.01-3.18-0.01c-2.22,0-4.45,0-6.67,0
				c-8.37,0-16.39,7.36-16,16C181.38,147.81,188.02,155.14,196.99,155.14L196.99,155.14z"/>
		</g>
	</g>
	<rect x="251.83" y="-17.73" class="st13" width="30.95" height="170.5"/>
	<rect x="-16.74" y="-62.04" class="st13" width="288.33" height="62.26"/>
	<rect x="-23.29" y="-12.51" class="st13" width="23.29" height="170.5"/>
	<rect x="-15.92" y="143.78" class="st13" width="277.48" height="62.26"/>
</g>
</svg>
