<?xml version="1.0" encoding="utf-8"?>
<!-- Generator: Adobe Illustrator 25.2.1, SVG Export Plug-In . SVG Version: 6.00 Build 0)  -->
<svg version="1.1" xmlns="http://www.w3.org/2000/svg" xmlns:xlink="http://www.w3.org/1999/xlink" x="0px" y="0px"
	 viewBox="0 0 559 567" style="enable-background:new 0 0 559 567;" xml:space="preserve">
<style type="text/css">
	.st0{fill:#FFFFFF;stroke:#FFFFFF;stroke-miterlimit:10;}
	.st1{fill:#010101;stroke:#FFFFFF;stroke-miterlimit:10;}
</style>
<g id="Layer_1">
	<g id="Layer_1_1_">
		<g>
			<path class="st0" d="M559,567c-186.3,0-372.7,0-559,0C0,378,0,189,0,0c186.3,0,372.7,0,559,0C559,189,559,378,559,567z
				 M500.5,402.6c0.2,0.2,0.4,0.4,0.7,0.7c-0.2,0.7-0.4,1.4-0.7,2c-2,3.3-4,6.7-6.1,9.9c-2,3.1-4.1,6.2-6.4,9.2
				c-3.1,4-6.3,7.9-9.6,11.7c-3.5,4.2-7,8.4-10.7,12.4c-2.8,3.1-5.9,6-9.1,8.8c-6,5.2-11.8,10.6-18.1,15.4
				c-5.9,4.5-12.2,8.7-18.4,12.7c-10.4,6.8-21.3,12.9-33.1,17.1c-5.8,2.1-11.6,4.3-17.6,5.7c-7.8,1.8-15.8,2.6-24,1.4
				c-8.8-1.3-16.3-5-22.4-11.3c-5-5.2-7.7-11.8-9.4-18.7c-1.1-4.6-2.1-9.2-2.6-13.9c-0.5-4.7-0.6-9.4-0.6-14.1
				c0-5.4-0.1-10.8,0.4-16.2c0.6-6.9,1.7-13.8,2.6-20.7c0.4-2.9,0.7-5.7,1.1-8.6c0.3-2.4,0.7-4.7,1.1-7.1c0.8-4.7,1.5-9.5,2.4-14.2
				c0.8-4.2,1.9-8.3,2.8-12.5c1-5,1.9-10.1,3-15.1c1-4.5,2.5-9,3.6-13.5c1.2-5,2.1-10.1,3.4-15c2.8-10.5,5.7-21.1,8.6-31.6
				c0.5-1.8,1.1-3.6,1.6-5.5c1.2-4.4,2.4-8.8,3.5-13.2c1-3.8,1.7-7.8,2.7-11.6c1.2-4.5,2.9-8.9,4.1-13.3c1.8-6.8,3.4-13.6,5.1-20.5
				c2.1-8.5,4.1-17.1,6.3-25.6c0.3-1.2,1.3-2.3,1.6-3.6c0.5-2.3,0.5-4.7,0.9-7c0.8-4.5,1.8-9.1,2.7-13.6c0.8-4.3,1.8-8.7,2.3-13
				c0.5-4.6,0.5-9.3,0.7-13.9c0.3-7.5,0.6-14.9,0.6-22.4c0-2.9-0.5-5.7-1.4-8.4c-1.1-3.4-1.1-5-2.8-8.2c-0.9-1.8-2-4-5.2-6.8
				c-6.1-4.1-12.3-7.7-20.3-6.9c-6.8,0.7-13.1,2.3-19.2,5.4c-8.6,4.4-16.6,9.8-23.9,16c-7.2,6.1-13.7,13.1-20,20
				c-4.9,5.4-9.7,11.1-14.1,16.9c-4.1,5.5-8.1,11.2-11.6,17.2c-2.3,3.9-5.1,7.5-7.6,11.4c-2.9,4.5-5.5,9.2-8.3,13.8
				c-2,3.3-4,6.5-6,9.7c-1.6,2.5-3.4,5-5.3,7.7c-0.1-0.5-0.5-1.1-0.4-1.6c0.7-2.5,1.7-5,2.4-7.5c2.1-7.4,4.2-14.7,6.2-22.2
				c2-7.4,3.8-14.8,5.7-22.1c0.9-3.5,2.1-6.9,3.1-10.4c0.9-3.2,2.2-6.3,2.7-9.5c1-5.7,1.5-11.5,2.3-17.2c0.7-4.9,1-9.7-0.8-14.4
				c-2.1-5.3-5.2-9.3-11.1-10.7c-5.3-1.2-9.8,0.5-14.3,2.7c-2.4,1.1-4.6,2.6-6.8,4c-2,1.2-4.2,2.3-5.9,3.9
				c-4.4,4.4-8.5,9.1-12.6,13.7c-3.5,3.9-7.1,7.9-10.5,11.9c-3.1,3.7-6,7.5-9,11.2c-2.9,3.8-5.8,7.7-8.7,11.5
				c-0.7,0.9-1.8,1.7-2.6,2.5c-0.2-0.2-0.4-0.3-0.6-0.5c0.1-0.6,0.2-1.3,0.4-1.9c0.8-3.6,1.9-7.2,2.4-10.8c0.6-4.2,1.7-8.4,1.2-12.8
				c-0.4-3.1,0.1-6.3-0.2-9.4c-0.8-9-4.2-16.5-12.3-21.5c-5.4-3.3-11.1-5.1-17.4-4.7c-7.3,0.4-14.1,2.7-20.6,6
				c-4.4,2.2-8.8,4.6-13,7.3c-4.7,3-9.4,5.9-13.6,9.6c-5.8,5-11.3,10.4-16.5,16.1c-6.7,7.5-13.2,15.3-19.3,23.4
				c-4.6,6.1-8.5,12.9-12.6,19.4c-4.2,6.5-8.4,13.1-9.5,21.1c-0.1,0.8,0,1.9,0.5,2.4c0.3,0.3,1.7,0.2,2.2-0.2
				c5-3.7,9.2-8.1,12.5-13.5c3.1-5.1,6.2-10.2,9.6-15.2c4.3-6.2,8.7-12.4,13.4-18.3c4.3-5.3,8.9-10.3,13.6-15.2
				c2.9-3,6.4-5.2,9.3-8.2c6-6.2,13.5-10.3,20.7-15c2.3-1.5,4.9-2.9,7.5-3.9c4.8-1.8,9.7-2.9,15-2.9c6.8,0,13.8,4.9,15.6,9.8
				c1.6,4.3,2.4,9,2.6,13.6c0.5,12.3-2.5,24.2-5.3,36.1c-1.3,5.5-3.4,10.9-5.2,16.3c-0.5,1.4-0.9,2.9-1.7,4.1
				c-2.5,4.3-5.6,8.4-7.7,12.9c-1.8,3.9-4.2,7.3-6.4,10.8c-4.8,7.8-9.2,15.9-13.8,23.9c-2.7,4.7-5.2,9.4-7.8,14.1
				c-4.5,8-9.2,15.9-13.6,24c-3.7,6.7-7.1,13.7-10.7,20.4c-3.2,5.9-6.5,11.8-9.7,17.7c-2.6,4.8-5,9.7-7.5,14.5
				c-1.9,3.6-4,7.1-5.8,10.7c-1.9,3.8-3.4,7.7-5.2,11.5c-2.6,5.5-5.3,11-7.9,16.5c-2.4,4.9-4.8,9.8-7.2,14.6
				c-1.6,3.2-3.4,6.4-4.9,9.7c-2.4,5.3-4.6,10.8-6.9,16.1c-3,6.7-6.3,13.3-9,20.2c-0.8,2.2-0.1,5,0.3,7.5c0.1,0.7,1.6,1.6,2.6,1.6
				c2.6,0.2,5.2-0.1,7.1-2.2c1.7-1.9,3.6-3.6,4.5-6.3c1.1-3.3,3.3-6.1,4.9-9.2c3.5-6.4,6.9-12.8,10.3-19.2
				c4.5-8.5,8.9-16.9,13.5-25.4c2.3-4.3,4.8-8.5,7.2-12.8c4.9-8.8,10-17.6,14.7-26.5c5.3-9.9,10.2-19.9,15.4-29.9
				c1.7-3.2,3.5-6.4,5.2-9.7c3.2-6.4,6.3-12.8,9.4-19.2c1.7-3.5,3.3-7.1,5-10.5c1.4-2.8,3.2-5.4,4.6-8.2c1.7-3.3,3.3-6.6,5-9.9
				c1-2,2.3-4,3.2-6.1c1.3-2.8,2.3-5.7,3.7-8.4c2.2-4.5,4.6-9,6.9-13.5c2.5-5,4.7-10.2,7.3-15.1c1.9-3.5,4.1-6.8,6.2-10.2
				c1.8-2.9,3.3-5.9,5.3-8.7c3.3-4.7,6-9.8,10.2-14c2.5-2.5,3.9-6.1,5.9-9.1c2.3-3.4,4.7-6.9,7.2-10.2c3.1-4,6.7-7.6,9.5-11.7
				c2.8-4.2,5.2-7,9.6-11.6c0.2-0.2,0.6-0.5,0.9-0.8c3.5-3.3,7-6.6,10.4-9.9c2.8-2.7,5.7-5.2,9.5-6.5c3.9-1.4,6.4-0.5,7.6,3.4
				c2,6.7,1.6,13.6,0.2,20.4c-0.5,2.6-1,5.2-1.5,7.8c-0.3,1.5-0.4,3-0.8,4.4c-0.9,3.4-2,6.8-2.8,10.3c-1.1,4.4-1.9,8.9-3.2,13.3
				c-1.8,6-3.9,11.9-5.8,17.9c-0.6,1.7-0.8,3.6-1.3,5.3c-1.4,4.2-3,8.4-4.3,12.7c-1.6,5.2-3,10.5-4.7,15.8c-0.4,1.1-1.8,1.9-2.2,3.1
				c-1.4,4.2-2.4,8.6-3.8,12.9c-1.3,3.8-2.9,7.5-4.4,11.3c-0.4,1.1-0.6,2.2-1.1,3.3c-2.9,7.2-5.9,14.3-8.9,21.5
				c-2.7,6.6-5.4,13.1-8.1,19.7c-0.9,2.3-1.7,4.7-2.6,6.9c-2,4.7-4.2,9.4-6.2,14.1c-2.4,5.6-4.7,11.3-7.1,16.9
				c-1.7,4.1-3.5,8.1-5.2,12.2c-1,2.3-1.8,4.7-2.8,7c-1.6,3.5-3.5,6.9-5,10.4c-2.1,5-4.2,10.1-5.9,15.2c-1.2,3.5-1.8,7.2-2.4,10.9
				c-0.1,0.9,0.8,2.5,1.6,2.8c2.2,0.6,5,1.5,6.9,0.8c3.8-1.4,7.2-3.7,8.7-8.2c1.4-4.3,3.7-8.2,5.5-12.4c2.3-5.2,4.5-10.5,6.7-15.7
				c2.4-5.8,4.5-11.6,7.8-17.1c3-5,4.6-10.8,6.8-16.3c3-7.1,5.9-14.2,9-21.2c3.9-8.8,8-17.5,12.1-26.2c2.8-6,5.7-12,8.6-17.9
				c2.4-4.9,5-9.6,7.5-14.5c2.8-5.3,5.5-10.7,8.4-16c1.6-2.9,3.6-5.6,5.2-8.5c4.6-7.9,9-15.9,13.6-23.8c2.7-4.6,5.6-9.1,8.6-13.6
				c3.3-4.9,6.7-9.6,10.2-14.4c0.8-1.1,1.9-2,2.8-3.1c3.3-4.4,6.4-8.8,9.7-13.1c2.4-3.1,5.1-6,7.8-9c2.8-3.2,5.6-6.6,8.7-9.5
				c3.7-3.5,7.6-6.8,11.6-10c2.7-2.2,5.5-4.1,8.4-5.9c3.1-1.9,6.3-3.7,9.7-5.1c6.3-2.7,12.8-4.3,19.1,0.1c4.3,3,6.8,7.5,8.2,12.4
				c0.7,2.6,0.9,5.4,1,8.1c0.2,7.4,0.5,14.9,0.3,22.3c-0.1,4.2-1,8.4-1.6,12.6c-0.8,5.3-1.7,10.6-2.6,15.9
				c-0.8,4.1-1.7,8.1-2.7,12.2c-2,8.7-4.1,17.4-6.1,26.1c-0.4,1.8-0.8,3.7-1.1,5.6c-0.3,1.6-0.5,3.3-1,4.9c-1.3,4.5-2.8,9-4.1,13.5
				c-1.2,4.5-2.2,9.1-3.4,13.7c-1.6,6.1-3.5,12.1-5.2,18.2c-1.9,7-3.7,14.1-5.5,21.1c-1,3.8-2.2,7.6-3.2,11.5
				c-0.9,3.5-1.7,7.1-2.6,10.6c-1.9,7.3-3.8,14.6-5.7,21.9c-1.3,5.1-2.6,10.1-3.8,15.2c-0.9,3.5-1.7,7.1-2.5,10.7
				c-1.3,6.4-2.4,12.9-3.7,19.3c-0.9,4.9-2,9.8-2.8,14.7c-1.2,7.3-2.4,14.7-3.4,22c-0.4,2.7-0.7,5.4-0.7,8.1
				c-0.1,4.6,0.1,9.3,0,13.9c0,4.8-1,9.6,0.7,14.3c0.3,0.8,0,1.9,0.3,2.7c0.6,1.9,1.1,3.9,1,5.9c-0.2,8.9,4.4,16.1,7.1,24
				c0.2,0.5,0.4,1.2,0.8,1.6c3.6,3.4,5.5,8.2,10,10.7c1.5,0.8,2.9,1.8,4.3,2.9c3.4,2.6,7.1,4.7,11.4,5.5c7.9,1.5,15.8,2.3,24,1.7
				c6.6-0.5,12.8-2.4,19.2-3.7c1.6-0.3,3.3-0.5,4.8-1.1c5.4-2.1,10.8-4.3,16.1-6.6c5.1-2.3,10.2-4.7,15.1-7.4
				c5.3-2.9,10.4-6.2,15.5-9.4c4.9-3.1,10.2-5.7,14.6-9.5c6.7-5.6,14.1-10.3,20.3-16.5c7.3-7.4,15.6-13.8,22.1-22.1
				c5.3-6.8,11.1-13.2,16.4-20c2.8-3.6,5.4-7.5,7.6-11.5c3.8-6.9,7.8-13.7,10.9-20.9c2.6-6.1,4.1-12.7,6.2-19.1
				c2.1-6.4,3-13,3.4-19.8c0.3-5.3-0.7-10.3-3.7-14.6c-0.9-1.3-3-1.9-4.7-2.5c-0.5-0.2-1.8,0.8-2,1.4c-1,5-1.9,10-2.7,15.1
				c-0.6,3.9-0.9,7.9-1.5,11.8c-0.4,2.5-1.1,5-1.5,7.6c-0.8,4.6-5,6.2-7.9,9c-2.4,2.3-4.9,4.6-7.8,6.4c-4.6,2.9-9.3,5.8-14.2,8
				c-2.8,1.2-6.1,1.4-9.3-0.5c-2.1-1.2-2.9-2.9-3.7-4.7c-1-2.3-2.4-4.8-2.2-7.1c0.4-6.1,1.3-12.2,2.5-18.2c0.9-4.6,2.4-9.1,4-13.5
				c2.2-6.2,4.6-12.4,7.1-18.5c1.5-3.6,3.6-6.9,5.2-10.4c1.5-3.5,3.1-7,4.1-10.6c1.4-5.3,4.4-10.1,3.4-16c-1-6.1-6-10.2-11.8-8.3
				c-3.9,1.3-7.8,3.4-11,6c-3.7,3.1-6.8,6.9-10,10.7c-5.4,6.5-10.7,13.1-15.9,19.7c-4.9,6.3-9.5,12.7-14.3,19
				c-0.3,0.4-0.8,0.6-1.9,1.4c1.3-3.9,2.2-7.2,3.4-10.4c1.8-4.8,4.1-9.5,5.7-14.4c2.2-6.6,4.2-13.2,6.1-19.9
				c1.3-4.8,1.9-9.6-1.6-14.1c-2-2.5-4.1-4-7.3-3.6c-5.1,0.7-9.8,2.4-13.5,6.2c-4.1,4.2-8.5,8.1-12.5,12.4
				c-4.7,5-8.9,10.4-13.3,15.6c-2.4,2.8-4.6,5.7-6.8,8.7c-1.1,1.4-1.9,1.6-3.3,0.8c1.7-4.5,3.3-9,5-13.5c2.8-7.1,5.2-13.2,6-20.9
				c0.2-1.6,0.5-3.6,0.3-4.7c-0.4-2.1-1.2-4.1-1.9-6.2c-0.1-0.4-0.1-0.4-0.7-1.2c-2.3-0.9-4.6-2.3-7-2.4c-5.7-0.4-10.1,2.8-14,6.5
				c-2.8,2.7-4.8,6.2-7.5,9c-5.4,5.8-9.5,12.5-13,19.5c-1.5,3.1-2.1,6.6-2.8,10c-0.1,0.6,1,2.1,1.5,2.1c3.1-0.1,6.4-0.3,8.7-2.8
				c1.4-1.5,2.6-3.1,3.8-4.7c2.2-3,4.2-6.1,6.4-9.1c2.3-3.3,4.6-6.7,7.1-9.9c1.3-1.5,1.6-1.2,2.5-1.8c0.3,0.1,0.6,0.3,0.9,0.4
				c-0.6,2.3-1.7,5-2.1,7.8c-0.8,3.1-3.1,10.9-5.1,16.7c-2.4,7.4-5.9,14.6-9.2,21.7c-2.2,4.8-4.8,9.5-7.3,14.1
				c-2.1,4-4.4,7.9-6.7,11.8c-1,1.7-1.8,3.5-2.8,5.2c-1.5,2.5-3.4,4.9-4.7,7.5c-2.6,5-4.6,10.3-7.3,15.2c-4.1,7.3-8.5,14.4-13,21.5
				c-2.2,3.4,0.2,7.2,3.1,8.4c3.5,1.5,6-0.2,8.6-1.9c3.4-2.3,6.4-5,7.8-9.1c0.2-0.5,0.8-0.9,1.1-1.3c2-2.8,4.2-5.5,6-8.5
				c3-4.7,5.6-9.7,8.6-14.4c2.5-3.9,5.3-7.6,7.9-11.4c4-5.7,7.9-11.4,11.9-17.1c2.6-3.6,5.3-7.2,7.8-10.8c2.5-3.5,4.7-7.2,7.3-10.7
				c3.5-4.6,7.3-9,10.9-13.6c1.3-1.7,2.3-3.6,3.7-5.3c3.5-4.1,7.1-8.1,10.7-12.1c2.5-2.8,5.1-5.6,7.7-8.4c0.4-0.5,1.3-0.5,1.9-0.8
				c0.2,0.7,0.6,1.4,0.4,2c-1.2,4.6-2.3,9.2-3.8,13.6c-2.5,6.9-5.5,13.7-7.9,20.7c-2.6,7.6-4.6,15.4-7,23.1c-1.2,4-2.9,8-4,12
				c-0.7,2.6-1.1,5.5-1.1,8.2c0,1.2,1.4,2.8,2.5,3.3c3.4,1.7,11.9-0.7,14.3-3.7c1.9-2.4,3.9-4.7,5.8-7c0.2-0.3,0.3-0.7,0.5-1.1
				c0.5-1.1,0.8-2.4,1.4-3.4c2.8-4.2,5.7-8.3,8.6-12.4c2-2.9,4.1-5.8,6.2-8.6c2-2.5,4.2-4.8,6.1-7.4c1-1.2,1.5-2.8,2.4-4
				c4.4-5.5,9.1-10.8,13.1-16.6c2.5-3.7,5.5-7,8.3-10.4c0.3-0.4,0.9-0.5,1.4-0.7c0.2,0.1,0.4,0.3,0.6,0.4c-1,2.5-1.9,5-3,7.5
				c-2,4.7-3.9,9.4-5.7,14.2c-3.6,9.2-7.6,18.3-10.8,27.7c-2,5.9-3.1,12.2-4.4,18.4c-1.4,6.5-1,13,1,19.3c1.7,5.6,5.1,10,10.7,11.8
				c5.3,1.7,10.8,3.1,16.5,1.1c4.8-1.7,9.9-2.5,14.1-5.8C496.9,404.2,498.8,403.5,500.5,402.6z"/>
			<path class="st1" d="M500.5,402.6c-1.7,0.9-3.6,1.5-5.1,2.7c-4.2,3.2-9.3,4-14.1,5.8c-5.8,2.1-11.2,0.7-16.5-1.1
				c-5.7-1.8-9-6.2-10.7-11.8c-2-6.4-2.4-12.8-1-19.3c1.3-6.2,2.4-12.4,4.4-18.4c3.1-9.4,7.2-18.5,10.8-27.7
				c1.8-4.8,3.7-9.5,5.7-14.2c1.1-2.5,2-5,3-7.5c-0.2-0.1-0.4-0.3-0.6-0.4c-0.5,0.2-1.1,0.4-1.4,0.7c-2.8,3.4-5.8,6.8-8.3,10.4
				c-4,5.8-8.6,11.1-13.1,16.6c-1,1.2-1.5,2.8-2.4,4c-2,2.5-4.2,4.8-6.1,7.4c-2.2,2.8-4.2,5.7-6.2,8.6c-2.9,4.1-5.8,8.2-8.6,12.4
				c-0.7,1-1,2.2-1.4,3.4c-0.2,0.4-0.2,0.8-0.5,1.1c-1.9,2.3-4,4.6-5.8,7c-2.4,3-10.9,5.4-14.3,3.7c-1.2-0.6-2.5-2.2-2.5-3.3
				c-0.1-2.7,0.3-5.6,1.1-8.2c1.1-4.1,2.7-8,4-12c2.4-7.7,4.4-15.5,7-23.1c2.4-7,5.4-13.7,7.9-20.7c1.6-4.4,2.6-9.1,3.8-13.6
				c0.2-0.6-0.3-1.3-0.4-2c-0.7,0.2-1.5,0.3-1.9,0.8c-2.6,2.7-5.2,5.6-7.7,8.4c-3.6,4-7.2,8-10.7,12.1c-1.4,1.6-2.4,3.6-3.7,5.3
				c-3.6,4.5-7.4,8.9-10.9,13.6c-2.6,3.4-4.8,7.1-7.3,10.7c-2.6,3.6-5.3,7.2-7.8,10.8c-4,5.7-7.9,11.4-11.9,17.1
				c-2.6,3.8-5.4,7.5-7.9,11.4c-3,4.7-5.6,9.6-8.6,14.4c-1.8,2.9-4,5.7-6,8.5c-0.3,0.5-0.9,0.8-1.1,1.3c-1.4,4.1-4.4,6.8-7.8,9.1
				c-2.5,1.7-5,3.4-8.6,1.9c-2.9-1.3-5.3-5-3.1-8.4c4.5-7.1,8.9-14.2,13-21.5c2.7-4.9,4.8-10.2,7.3-15.2c1.3-2.6,3.2-5,4.7-7.5
				c1-1.7,1.9-3.5,2.8-5.2c2.2-3.9,4.5-7.8,6.7-11.8c2.5-4.7,5.1-9.3,7.3-14.1c3.3-7.2,6.7-14.3,9.2-21.7c1.9-5.8,5.3-11.3,5.5-17.7
				c0.1-2.3,1.1-4.5,1.7-6.8c-0.3-0.1-0.6-0.3-0.9-0.4c-0.8,0.6-1.9,1-2.5,1.8c-2.4,3.2-4.7,6.6-7.1,9.9c-2.1,3-4.2,6.1-6.4,9.1
				c-1.2,1.6-2.4,3.3-3.8,4.7c-2.4,2.5-5.6,2.7-8.7,2.8c-0.5,0-1.6-1.5-1.5-2.1c0.7-3.4,1.3-6.9,2.8-10c3.5-7,7.6-13.7,13-19.5
				c2.7-2.8,4.7-6.3,7.5-9c3.8-3.7,8.3-6.9,14-6.5c2.4,0.2,2.7,0.6,5,1.5c0.3,0.1,2.2,1.2,2.7,2.1c1.1,1.9,1.5,4.1,1.9,6.2
				c0.2,1.1-0.1,2.3-0.2,3.5c0,0.1,0,0.2,0,0.3c-0.4,7.7-3.2,14.7-6,21.8c-1.7,4.4-3.3,8.9-5,13.5c1.4,0.8,2.2,0.7,3.3-0.8
				c2.2-2.9,4.4-5.9,6.8-8.7c4.4-5.2,8.7-10.6,13.3-15.6c4-4.3,8.4-8.2,12.5-12.4c3.7-3.8,8.4-5.5,13.5-6.2c3.2-0.4,5.4,1.1,7.3,3.6
				c3.5,4.5,2.9,9.3,1.6,14.1c-1.8,6.7-3.8,13.3-6.1,19.9c-1.7,4.9-3.9,9.6-5.7,14.4c-1.2,3.2-2.1,6.4-3.4,10.4c1-0.8,1.6-1,1.9-1.4
				c4.8-6.3,9.4-12.7,14.3-19c5.2-6.7,10.5-13.3,15.9-19.7c3.1-3.7,6.2-7.6,10-10.7c3.2-2.6,7.1-4.8,11-6c5.9-1.9,10.9,2.2,11.8,8.3
				c0.9,5.9-2,10.7-3.4,16c-1,3.6-2.5,7.2-4.1,10.6c-1.6,3.5-3.7,6.9-5.2,10.4c-2.5,6.1-4.9,12.3-7.1,18.5c-1.6,4.4-3.1,8.9-4,13.5
				c-1.2,6-2.1,12.1-2.5,18.2c-0.2,2.3,1.2,4.9,2.2,7.1c0.8,1.8,1.6,3.5,3.7,4.7c3.2,1.9,6.5,1.7,9.3,0.5c5-2.2,9.7-5,14.2-8
				c2.8-1.8,5.3-4.1,7.8-6.4c2.9-2.7,7-4.4,7.9-9c0.4-2.5,1.1-5,1.5-7.6c0.6-3.9,0.9-7.9,1.5-11.8c0.8-5.1,1.7-10.1,2.7-15.1
				c0.1-0.6,1.5-1.6,2-1.4c1.7,0.6,3.8,1.2,4.7,2.5c3,4.3,4,9.2,3.7,14.6c-0.4,6.7-1.3,13.3-3.4,19.8c-2.1,6.4-3.6,13-6.2,19.1
				c-3.1,7.2-7,14.1-10.9,20.9c-2.2,4-4.8,7.9-7.6,11.5c-5.3,6.8-11,13.2-16.4,20c-6.5,8.3-14.8,14.7-22.1,22.1
				c-6.2,6.2-13.6,10.9-20.3,16.5c-4.4,3.7-9.7,6.4-14.6,9.5c-5.1,3.2-10.2,6.5-15.5,9.4c-4.9,2.7-10,5.1-15.1,7.4
				c-5.3,2.4-10.7,4.5-16.1,6.6c-1.5,0.6-3.2,0.8-4.8,1.1c-6.4,1.3-12.5,3.3-19.2,3.7c-8.2,0.6-16.1-0.2-24-1.7
				c-4.2-0.8-7.9-2.9-11.4-5.5c-1.4-1-2.8-2-4.3-2.9c-4.5-2.5-6.5-7.3-10-10.7c-0.4-0.4-0.6-1-0.8-1.6c-2.8-7.9-7.3-15.1-7.1-24
				c0-2-0.4-4-1-5.9c-0.3-0.9,0-1.9-0.3-2.7c-1.7-4.7-0.7-9.5-0.7-14.3c0-4.6-0.2-9.3,0-13.9c0.1-2.7,0.3-5.4,0.7-8.1
				c1.1-7.3,2.2-14.7,3.4-22c0.8-4.9,1.9-9.8,2.8-14.7c1.2-6.4,2.4-12.9,3.7-19.3c0.7-3.6,1.6-7.1,2.5-10.7
				c1.2-5.1,2.5-10.1,3.8-15.2c1.9-7.3,3.8-14.6,5.7-21.9c0.9-3.5,1.7-7.1,2.6-10.6c1-3.8,2.2-7.6,3.2-11.5c1.9-7,3.6-14.1,5.5-21.1
				c1.7-6.1,3.5-12.1,5.2-18.2c1.2-4.5,2.2-9.2,3.4-13.7c1.2-4.5,2.8-9,4.1-13.5c0.5-1.6,0.6-3.3,1-4.9c0.4-1.9,0.7-3.7,1.1-5.6
				c2-8.7,4.1-17.4,6.1-26.1c0.9-4,1.9-8.1,2.7-12.2c1-5.3,1.8-10.6,2.6-15.9c0.6-4.2,1.5-8.4,1.6-12.6c0.2-7.4-0.1-14.9-0.3-22.3
				c-0.1-2.7-0.2-5.5-1-8.1c-1.4-5-3.9-9.4-8.2-12.4c-6.3-4.4-12.8-2.8-19.1-0.1c-3.3,1.4-6.5,3.2-9.7,5.1c-2.9,1.8-5.7,3.8-8.4,5.9
				c-4,3.2-7.9,6.5-11.6,10c-3.1,3-5.8,6.3-8.7,9.5c-2.6,3-5.3,5.9-7.8,9c-3.3,4.3-6.5,8.8-9.7,13.1c-0.8,1.1-2,2-2.8,3.1
				c-3.4,4.8-6.9,9.5-10.2,14.4c-3,4.4-5.9,8.9-8.6,13.6c-4.6,7.9-9,15.9-13.6,23.8c-1.7,2.9-3.6,5.6-5.2,8.5
				c-2.9,5.3-5.6,10.7-8.4,16c-2.5,4.8-5.1,9.6-7.5,14.5c-2.9,5.9-5.8,11.9-8.6,17.9c-4.1,8.7-8.1,17.4-12.1,26.2
				c-3.1,7-6.1,14.1-9,21.2c-2.3,5.4-3.9,11.3-6.8,16.3c-3.3,5.5-5.3,11.3-7.8,17.1c-2.2,5.3-4.4,10.5-6.7,15.7
				c-1.8,4.1-4.1,8.1-5.5,12.4c-1.5,4.5-4.9,6.8-8.7,8.2c-2,0.7-4.7-0.2-6.9-0.8c-0.7-0.2-1.7-1.9-1.6-2.8c0.6-3.7,1.2-7.4,2.4-10.9
				c1.7-5.2,3.8-10.2,5.9-15.2c1.5-3.5,3.4-6.9,5-10.4c1-2.3,1.8-4.7,2.8-7c1.7-4.1,3.5-8.1,5.2-12.2c2.4-5.6,4.7-11.3,7.1-16.9
				c2-4.7,4.2-9.4,6.2-14.1c1-2.3,1.7-4.6,2.6-6.9c2.7-6.6,5.3-13.2,8.1-19.7c3-7.2,5.9-14.3,8.9-21.5c0.4-1.1,0.6-2.2,1.1-3.3
				c1.5-3.8,3.1-7.4,4.4-11.3c1.4-4.2,2.4-8.6,3.8-12.9c0.4-1.1,1.9-1.9,2.2-3.1c1.7-5.2,3-10.5,4.7-15.8c1.3-4.3,2.9-8.4,4.3-12.7
				c0.6-1.7,0.8-3.6,1.3-5.3c1.9-6,4.1-11.9,5.8-17.9c1.3-4.4,2.1-8.9,3.2-13.3c0.9-3.4,1.9-6.8,2.8-10.3c0.4-1.4,0.5-2.9,0.8-4.4
				c0.5-2.6,0.9-5.2,1.5-7.8c1.4-6.8,1.7-13.7-0.2-20.4c-1.1-3.9-3.7-4.8-7.6-3.4c-3.8,1.4-6.7,3.8-9.5,6.5
				c-3.4,3.3-6.9,6.6-10.4,9.9c-0.3,0.3-0.8,0.5-0.9,0.8c-1.5,5.3-6.7,7.4-9.6,11.6c-2.8,4.1-6.4,7.7-9.5,11.7
				c-2.6,3.3-4.9,6.7-7.2,10.2c-2,3-3.4,6.6-5.9,9.1c-4.1,4.2-6.9,9.3-10.2,14c-1.9,2.8-3.5,5.8-5.3,8.7c-2.1,3.4-4.4,6.7-6.2,10.2
				c-2.6,4.9-4.8,10.1-7.3,15.1c-2.2,4.5-4.6,9-6.9,13.5c-1.3,2.7-2.4,5.6-3.7,8.4c-1,2.1-2.2,4-3.2,6.1c-1.7,3.3-3.2,6.6-5,9.9
				c-1.5,2.8-3.2,5.4-4.6,8.2c-1.8,3.5-3.3,7-5,10.5c-3.1,6.4-6.2,12.8-9.4,19.2c-1.6,3.3-3.5,6.4-5.2,9.7
				c-5.1,10-10.1,20-15.4,29.9c-4.7,8.9-9.8,17.7-14.7,26.5c-2.4,4.3-4.9,8.5-7.2,12.8c-4.5,8.4-9,16.9-13.5,25.4
				c-3.4,6.4-6.8,12.8-10.3,19.2c-1.7,3.1-3.9,5.9-4.9,9.2c-0.9,2.7-2.8,4.4-4.5,6.3c-1.9,2.2-4.5,2.4-7.1,2.2
				c-0.9-0.1-2.4-0.9-2.6-1.6c-0.4-2.5-1.1-5.4-0.3-7.5c2.6-6.9,6-13.4,9-20.2c2.4-5.3,4.5-10.8,6.9-16.1c1.5-3.3,3.3-6.5,4.9-9.7
				c2.4-4.9,4.8-9.8,7.2-14.6c2.7-5.5,5.3-11,7.9-16.5c1.8-3.8,3.4-7.7,5.2-11.5c1.8-3.6,3.9-7.1,5.8-10.7c2.5-4.8,5-9.7,7.5-14.5
				c3.2-5.9,6.5-11.8,9.7-17.7c3.6-6.8,7-13.7,10.7-20.4c4.4-8.1,9.1-16,13.6-24c2.6-4.7,5.2-9.4,7.8-14.1c4.5-8,9-16,13.8-23.9
				c2.2-3.6,4.6-7,6.4-10.8c2.1-4.5,5.1-8.6,7.7-12.9c0.7-1.3,1.2-2.7,1.7-4.1c1.8-5.4,3.9-10.8,5.2-16.3
				c2.8-11.9,5.8-23.8,5.3-36.1c-0.2-4.6-1-9.3-2.6-13.6c-1.8-4.9-8.8-9.8-15.6-9.8c-5.2,0-10.2,1.1-15,2.9c-2.6,1-5.1,2.4-7.5,3.9
				c-7.1,4.6-14.6,8.7-20.7,15c-2.9,3-6.4,5.2-9.3,8.2c-4.7,4.9-9.3,9.9-13.6,15.2c-4.7,5.9-9.1,12.1-13.4,18.3
				c-3.4,4.9-6.5,10.1-9.6,15.2c-3.2,5.4-7.5,9.8-12.5,13.5c-0.5,0.4-1.9,0.6-2.2,0.2c-0.5-0.5-0.6-1.6-0.5-2.4
				c1.1-8,5.2-14.5,9.5-21.1c4.2-6.5,8-13.2,12.6-19.4c6.1-8.1,12.5-15.9,19.3-23.4c5.1-5.7,10.7-11.1,16.5-16.1
				c4.2-3.6,8.9-6.6,13.6-9.6c4.2-2.7,8.5-5.1,13-7.3c6.5-3.2,13.3-5.5,20.6-6c6.3-0.4,12,1.4,17.4,4.7c8.1,5,11.5,12.5,12.3,21.5
				c0.3,3.1-0.1,6.3,0.2,9.4c0.5,4.4-0.6,8.5-1.2,12.8c-0.5,3.7-1.6,7.2-2.4,10.8c-0.1,0.6-0.3,1.2-0.4,1.9c0.2,0.2,0.4,0.3,0.6,0.5
				c0.9-0.8,1.9-1.5,2.6-2.5c2.9-3.8,5.8-7.7,8.7-11.5s5.9-7.6,9-11.2c3.4-4,7-8,10.5-11.9c4.2-4.6,8.3-9.3,12.6-13.7
				c1.6-1.6,3.9-2.7,5.9-3.9c2.2-1.4,4.4-2.9,6.8-4c4.5-2.2,9-3.9,14.3-2.7c5.9,1.4,9,5.4,11.1,10.7c1.9,4.7,1.5,9.6,0.8,14.4
				c-0.8,5.7-1.3,11.5-2.3,17.2c-0.5,3.2-1.8,6.3-2.7,9.5c-1,3.5-2.2,6.9-3.1,10.4c-2,7.4-3.8,14.8-5.7,22.1
				c-2,7.4-4.1,14.8-6.2,22.2c-0.7,2.5-1.7,5-2.4,7.5c-0.1,0.5,0.3,1.1,0.4,1.6c1.9-2.7,3.7-5.2,5.3-7.7c2.1-3.2,4.1-6.5,6-9.7
				c2.8-4.6,5.4-9.3,8.3-13.8c2.4-3.9,5.3-7.5,7.6-11.4c3.5-6,7.4-11.7,11.6-17.2c4.4-5.9,9.1-11.5,14.1-16.9c6.3-7,12.8-13.9,20-20
				c7.3-6.2,15.3-11.6,23.9-16c6.1-3.1,12.4-4.7,19.2-5.4c8-0.8,14.2,2.8,20.3,6.9c1.9,2.3,3.7,4.1,4.6,5.9c1.7,3.2,2.2,5.6,3.4,9.1
				c0.9,2.8,1.4,5.8,1.4,8.8c0,7.3-0.4,14.7-0.6,22c-0.2,4.6-0.2,9.3-0.7,13.9c-0.5,4.4-1.5,8.7-2.3,13c-0.9,4.5-1.9,9.1-2.7,13.6
				c-0.4,2.3-0.4,4.7-0.9,7c-0.2,1.2-1.2,2.3-1.6,3.6c-2.2,8.5-4.2,17.1-6.3,25.6c-1.7,6.8-3.3,13.7-5.1,20.5
				c-1.2,4.5-2.8,8.9-4.1,13.3c-1,3.8-1.7,7.7-2.7,11.6c-1.1,4.4-2.3,8.8-3.5,13.2c-0.5,1.8-1.1,3.6-1.6,5.5
				c-2.9,10.5-5.8,21-8.6,31.6c-1.3,5-2.2,10-3.4,15c-1.1,4.5-2.5,8.9-3.6,13.5c-1.1,5-2,10.1-3,15.1c-0.9,4.2-2,8.3-2.8,12.5
				c-0.9,4.7-1.6,9.4-2.4,14.2c-0.4,2.4-0.8,4.7-1.1,7.1c-0.4,2.9-0.8,5.7-1.1,8.6c-0.9,6.9-2,13.7-2.6,20.7
				c-0.5,5.4-0.4,10.8-0.4,16.2c0,4.7,0.1,9.5,0.6,14.1c0.5,4.7,1.5,9.3,2.6,13.9c1.7,6.9,4.3,13.5,9.4,18.7
				c6.1,6.4,13.7,10,22.4,11.3c8.1,1.2,16.1,0.4,24-1.4c6-1.4,11.8-3.6,17.6-5.7c11.8-4.2,22.6-10.3,33.1-17.1
				c6.3-4.1,12.5-8.2,18.4-12.7c6.3-4.8,12.1-10.2,18.1-15.4c3.2-2.8,6.2-5.7,9.1-8.8c3.7-4,7.2-8.2,10.7-12.4
				c3.3-3.9,6.5-7.7,9.6-11.7c2.3-2.9,4.3-6.1,6.4-9.2c2.1-3.2,4.1-6.6,6.1-9.9c0.3-0.6,0.5-1.3,0.7-2
				C501,403.1,500.7,402.8,500.5,402.6z"/>
		</g>
	</g>
</g>
<g id="Layer_2">
</g>
</svg>
